<svg width="74" height="52" viewBox="0 0 74 52" fill="none" xmlns="http://www.w3.org/2000/svg">
<path fill-rule="evenodd" clip-rule="evenodd" d="M13.9547 1.17656C11.0973 2.08148 8.26287 2.95115 5.43244 3.94032C4.82276 4.15088 4.49756 4.82006 4.70198 5.43552C4.90582 6.05566 5.56577 6.38454 6.17085 6.17342C8.98632 5.19193 11.7965 4.32883 14.6344 3.43102C15.2469 3.2351 15.5901 2.5728 15.4047 1.95491C15.2152 1.33177 14.5672 0.980644 13.9547 1.17656Z" fill="black"/>
<path fill-rule="evenodd" clip-rule="evenodd" d="M32.0248 18.2682C27.0286 26.455 22.4404 34.892 17.6183 43.1812C17.292 43.7456 17.4739 44.4678 18.0218 44.7971C18.5743 45.1269 19.2834 44.9429 19.6143 44.379C24.4254 36.1028 29.0026 27.6788 33.9919 19.5102C34.3315 18.9522 34.164 18.227 33.6225 17.8842C33.0763 17.5408 32.3638 17.7149 32.0248 18.2682Z" fill="black"/>
<path fill-rule="evenodd" clip-rule="evenodd" d="M65.4542 24.6695C65.7285 32.7959 66.2266 40.9261 66.4118 49.0559C66.4298 49.7055 66.9598 50.2182 67.5969 50.2014C68.2387 50.1852 68.745 49.6383 68.7315 48.9892C68.5429 40.8495 68.046 32.7099 67.7682 24.5735C67.7455 23.9233 67.2105 23.4147 66.5721 23.4408C65.9292 23.4664 65.4321 24.0146 65.4542 24.6695Z" fill="black"/>
</svg>
