<svg width="100" height="100" viewBox="0 0 100 100" fill="none" xmlns="http://www.w3.org/2000/svg">
<path d="M84.375 90.625H79.6875V54.6875H90.625V84.375C90.625 87.8266 87.8266 90.625 84.375 90.625Z" fill="#13CF8F"/>
<path d="M73.4375 29.6875H67.1875C67.1875 24.5094 71.3844 20.3125 76.5625 20.3125H82.8125C82.8125 25.4906 78.6156 29.6875 73.4375 29.6875Z" fill="#13CF8F"/>
<path d="M26.9766 9.01725C26.9125 8.84068 26.8391 8.66725 26.7453 8.47975C26.1672 7.32506 25.1735 6.46256 23.9485 6.05318C22.7188 5.64224 21.4094 5.73912 20.2547 6.31568L19.8641 6.51099C18.7094 7.08912 17.8469 8.08287 17.4375 9.30787C17.0282 10.5344 17.1219 11.8469 17.7032 13.0079C17.8 13.1969 17.9078 13.3829 18.025 13.5563L24.2657 22.7423L30.6813 19.2048L26.9766 9.01725Z" fill="#13CF8F"/>
<path d="M34.5234 1.5625H34.2281C31.725 1.5625 29.6875 3.6 29.6875 6.10156C29.6875 6.25781 29.6953 6.40938 29.7109 6.55312L30.9594 19.0422H37.7922L39.0391 6.56563C39.0547 6.41094 39.0625 6.25781 39.0625 6.10156C39.0625 3.6 37.025 1.5625 34.5234 1.5625Z" fill="#13CF8F"/>
<path d="M51.314 9.30933C50.9047 8.08433 50.0437 7.09058 48.8875 6.51246L48.4969 6.31715C47.3422 5.74059 46.0328 5.64371 44.8031 6.05465C43.5781 6.46402 42.5844 7.32496 41.9969 8.49996C41.9109 8.66715 41.8375 8.84058 41.7734 9.01715L38.0687 19.2062L44.4844 22.7437L50.725 13.5593C50.8422 13.3859 50.9516 13.2 51.05 13.0046C51.6297 11.8484 51.7234 10.5359 51.314 9.30933Z" fill="#13CF8F"/>
<path d="M85.9375 57.8125H82.8125V60.9375H85.9375V57.8125Z" fill="#051833"/>
<path d="M85.9375 70.3125H82.8125V73.4375H85.9375V70.3125Z" fill="#051833"/>
<path d="M85.9375 82.8125H82.8125V85.9375H85.9375V82.8125Z" fill="#051833"/>
<path d="M23.4375 92.1875C14.8219 92.1875 7.8125 85.1781 7.8125 76.5625H10.9375C10.9375 83.4547 16.5453 89.0625 23.4375 89.0625V92.1875Z" fill="#051833"/>
<path d="M42.1875 26.5625H39.0625V29.6875H42.1875V26.5625Z" fill="#051833"/>
<path d="M95.3125 45.3125H85.6703C84.8641 41.6234 83.1234 38.2109 80.575 35.3797C77.1922 31.6219 71.8672 30.3859 67.1875 32.1906V23.4375C67.1875 19.9906 69.9906 17.1875 73.4375 17.1875V14.0625C68.2672 14.0625 64.0625 18.2672 64.0625 23.4375V32.1891C59.3797 30.3797 54.0547 31.6187 50.675 35.3781C50.2734 35.825 49.8969 36.2891 49.5359 36.7641L49.6719 36.1125C49.8891 35.0672 50 33.9937 50 32.8125C50 24.1969 42.9906 17.1875 34.375 17.1875C25.7594 17.1875 18.75 24.1969 18.75 32.925C18.75 33.9938 18.8609 35.0672 19.0797 36.1125L20.9969 45.3125H18.75C17.0266 45.3125 15.625 46.7141 15.625 48.4375V54.6875H18.75V48.4375H22.0156C21.9297 48.9469 21.875 49.4672 21.875 50V65.3063C20.3234 64.7281 18.85 63.5109 18.2906 62.9547L16.0828 65.1672C16.4484 65.5344 19.7703 68.75 23.4375 68.75C27.1047 68.75 30.4266 65.5344 30.7922 65.1672L28.5844 62.9547C28.025 63.5094 26.5516 64.7266 25 65.3063V62.3641C25.7484 62.2437 26.4734 62.0484 27.1437 61.7609C30.6266 60.2672 34.8391 61.2047 37.3828 64.0312C40.6875 67.7047 42.3875 72.4578 42.1688 77.4141C41.7422 87.0687 33.8406 94.925 24.1828 95.2984C18.9984 95.4844 14.1453 93.6422 10.4375 90.075C6.73125 86.5062 4.6875 81.7078 4.6875 76.5625C4.6875 71.9641 6.36875 67.5437 9.42031 64.1109C11.1469 62.1703 13.5 60.9344 15.7156 60.8031L15.5328 57.6844C12.4625 57.8641 9.38281 59.4484 7.08594 62.0344C3.525 66.0391 1.5625 71.1984 1.5625 76.5625C1.5625 82.5656 3.94531 88.1641 8.27188 92.3281C12.3875 96.2875 17.7406 98.4391 23.4281 98.4391C23.7203 98.4391 24.0109 98.4328 24.3047 98.4219C29.8656 98.2078 34.9234 95.8594 38.6844 92.1891H84.375C88.6828 92.1891 92.1875 88.6844 92.1875 84.3766V54.6875H95.3125C97.0359 54.6875 98.4375 53.2859 98.4375 51.5625V48.4375C98.4375 46.7141 97.0359 45.3125 95.3125 45.3125ZM52.9969 37.4688C55.5422 34.6406 59.7531 33.7078 63.2375 35.1984C63.5031 35.3125 63.7812 35.4078 64.0625 35.4969V38.8172C62.425 38.2828 60.8219 36.9766 60.2344 36.3922L58.0266 38.6047C58.3922 38.9719 61.7141 42.1875 65.3813 42.1875C69.0484 42.1875 72.3703 38.9719 72.7359 38.6047L70.5281 36.3922C69.9984 36.9172 68.6469 38.0281 67.1875 38.6359V35.4953C67.4688 35.4062 67.7469 35.3109 68.0125 35.1969C71.4969 33.7062 75.7109 34.6422 78.2531 37.4672C80.2812 39.7219 81.7078 42.4062 82.4547 45.3109H48.7953C49.5422 42.4094 50.9688 39.7234 52.9969 37.4688ZM34.375 20.3125C41.2672 20.3125 46.875 25.9203 46.875 32.925C46.875 33.7797 46.7859 34.6375 46.6125 35.475L44.5625 45.3125H27.1594C28.2578 44.3516 29.6781 43.75 31.25 43.75V40.625C28.2969 40.625 25.6625 42 23.9422 44.1406L22.1359 35.475C21.9641 34.6375 21.875 33.7797 21.875 32.8125C21.875 25.9203 27.4828 20.3125 34.375 20.3125ZM45.2875 76.5625C45.2875 73.2781 44.5859 70.0891 43.2062 67.1875H89.0625V76.5625H45.2875ZM84.375 89.0625H41.3484C43.2734 86.3219 44.5891 83.1297 45.0875 79.6875H89.0625V84.375C89.0625 86.9594 86.9594 89.0625 84.375 89.0625ZM95.3125 51.5625H89.0625V64.0625H41.3672C40.8547 63.3297 40.3125 62.6156 39.7062 61.9422C36.2266 58.075 30.6813 56.85 25.9156 58.8891C25.6297 59.0109 25.3156 59.0906 25.0016 59.1688V54.6875H85.9391V51.5625H25V50C25 49.4578 25.0906 48.9406 25.2219 48.4375H95.3125V51.5625Z" fill="#051833"/>
<path d="M42.1875 32.8125H39.0625V35.9375H42.1875V32.8125Z" fill="#051833"/>
<path d="M42.1875 39.0625H39.0625V42.1875H42.1875V39.0625Z" fill="#051833"/>
<path d="M15.625 60.9375H21.875C21.875 55.7594 17.6781 51.5625 12.5 51.5625H6.25C6.25 56.7406 10.4469 60.9375 15.625 60.9375Z" fill="#13CF8F"/>
</svg>
