<svg width="177" height="176" viewBox="0 0 177 176" fill="none" xmlns="http://www.w3.org/2000/svg">
<rect x="0.5" width="176" height="176" rx="88" fill="#E3F9F2"/>
<g clip-path="url(#clip0_1_276)">
<path d="M63.9986 25C48.4244 25 35.756 37.6684 35.756 53.2425V67.3638H37.7734C37.7734 64.0206 40.4822 61.3118 43.8253 61.3118H45.8427V57.2929C45.8427 54.8747 47.3901 52.7264 49.6852 51.962C51.0997 51.4892 52.6433 51.6005 53.977 52.2664L56.3548 53.4543C58.7297 54.6422 61.3459 55.2598 63.9986 55.2598C66.6512 55.2598 69.2675 54.6422 71.6423 53.4563L74.0202 52.2683C75.3539 51.6025 76.8974 51.4911 78.3119 51.964C80.607 52.7264 82.1545 54.8747 82.1545 57.2929V61.3118H84.1718C87.515 61.3118 90.2238 64.0206 90.2238 67.3638H92.2411V53.2425C92.2411 37.6684 79.5728 25 63.9986 25Z" fill="#13CF8F"/>
<path d="M146.709 77.4504H150.743V81.4851H146.709V77.4504Z" fill="#051833"/>
<path d="M57.9466 61.3118C57.9466 62.4259 57.0433 63.3292 55.9293 63.3292C54.8152 63.3292 53.912 62.4259 53.912 61.3118C53.912 60.1978 54.8152 59.2945 55.9293 59.2945C57.0433 59.2945 57.9466 60.1978 57.9466 61.3118Z" fill="#051833"/>
<path d="M74.0852 61.3118C74.0852 62.4259 73.1819 63.3292 72.0679 63.3292C70.9538 63.3292 70.0506 62.4259 70.0506 61.3118C70.0506 60.1978 70.9538 59.2945 72.0679 59.2945C73.1819 59.2945 74.0852 60.1978 74.0852 61.3118Z" fill="#051833"/>
<path d="M63.9986 75.4331C61.7734 75.4331 59.9639 73.6236 59.9639 71.3984H55.9293C55.9293 75.8487 59.5483 79.4677 63.9986 79.4677C68.4489 79.4677 72.0679 75.8487 72.0679 71.3984H68.0332C68.0332 73.6236 66.2237 75.4331 63.9986 75.4331Z" fill="#051833"/>
<path d="M127.306 77.4504L124.518 83.0266L121.731 77.4504H111.727L104.22 59.9338L96.8953 79.4677H81.4423C82.1791 78.201 82.7938 76.8555 83.2419 75.4331H84.1718C88.6221 75.4331 92.2411 71.8141 92.2411 67.3638C92.2411 62.9135 88.6221 59.2945 84.1718 59.2945V57.2929C84.1718 54.001 82.0737 51.0883 78.9472 50.0471C77.0166 49.4019 74.9422 49.5467 73.1169 50.4628L70.7381 51.6507C66.5744 53.7331 61.4208 53.7331 57.2551 51.6507L54.8763 50.4628C53.053 49.5507 50.9766 49.4039 49.044 50.0471C45.9234 51.0903 43.8253 54.001 43.8253 57.2929V59.2945C39.375 59.2945 35.756 62.9135 35.756 67.3638C35.756 71.8141 39.375 75.4331 43.8253 75.4331H44.7552C46.282 80.2745 49.5966 84.319 53.912 86.8249V90.1591L34.9493 97.0829C29.3997 99.11 25.6694 104.44 25.6694 110.349V139.987H102.328V130.909H98.2931V135.953H90.2238V117.797H86.1891V135.953H71.9181L70.0949 112.232L72.7396 107.811L77.5042 110.964L81.4059 97.1292L87.053 99.1908L88.436 95.4004L74.0852 90.1591V86.8249C75.6632 85.9088 77.1112 84.7957 78.3799 83.5024H99.6908L104.468 70.7592L109.067 81.4851H119.237L124.518 92.0474L129.8 81.4851H142.674V77.4504H127.306ZM88.2064 67.3638C88.2064 69.589 86.397 71.3984 84.1718 71.3984H84.0694C84.1353 70.7345 84.1718 70.0627 84.1718 69.3811V63.3291C86.397 63.3291 88.2064 65.1386 88.2064 67.3638ZM43.8253 71.3984C41.6002 71.3984 39.7907 69.589 39.7907 67.3638C39.7907 65.1386 41.6002 63.3291 43.8253 63.3291V69.3811C43.8253 70.0627 43.8618 70.7345 43.9278 71.3984H43.8253ZM52.9437 104.569L50.3393 95.7619L54.17 94.3632L60.5973 99.506L52.9437 104.569ZM36.3313 100.873L46.541 97.1459L50.618 110.942L55.2998 107.843L57.9023 112.225L56.079 135.953H41.808V115.78H37.7734V123.849H29.7041V110.349C29.7041 106.128 32.3666 102.322 36.3313 100.873ZM29.7041 127.883H37.7734V135.953H29.7041V127.883ZM60.1255 135.953L61.8315 113.762H66.1656L67.8717 135.953H60.1255ZM66.8896 109.728H61.1134L58.6706 105.618L63.9099 102.153L63.9986 102.225L64.1335 102.118L69.3709 105.582L66.8896 109.728ZM75.1224 104.549L67.4442 99.4696L73.8291 94.3612L77.6056 95.7413L75.1224 104.549ZM70.0505 92.2149L63.9986 97.0573L57.9466 92.2149V88.6245C59.8595 89.2253 61.8906 89.5543 63.9986 89.5543C66.1065 89.5543 68.1386 89.2253 70.0505 88.6245V92.2149ZM63.9986 85.5197C55.0999 85.5197 47.86 78.2798 47.86 69.3811V57.2929C47.86 55.7396 48.8509 54.3664 50.3235 53.8739C50.7008 53.7488 51.084 53.6887 51.4671 53.6887C52.0178 53.6887 52.5664 53.8158 53.0747 54.0699L55.4535 55.2598C60.7322 57.9007 67.2649 57.9007 72.5456 55.2598L74.9244 54.0719C75.7853 53.6424 76.7644 53.5715 77.6736 53.8759C79.1462 54.3664 80.1371 55.7396 80.1371 57.2929V69.3811C80.1371 78.2798 72.8972 85.5197 63.9986 85.5197Z" fill="#051833"/>
<path d="M116.449 151L86.9683 119.677C83.8655 116.38 82.1545 112.07 82.1545 107.539V107.262C82.1545 97.4986 90.0987 89.5544 99.8622 89.5544C104.593 89.5544 109.04 91.3964 112.384 94.7405L116.449 98.8057L120.514 94.7405C123.858 91.3964 128.305 89.5544 133.036 89.5544C142.799 89.5544 150.743 97.4986 150.743 107.262V107.539C150.743 112.07 149.032 116.38 145.928 119.677L116.449 151Z" fill="#13CF8F"/>
<path d="M122.501 135.953H110.397V127.883H102.328V115.78H110.397V107.71H122.501V115.78H130.57V127.883H122.501V135.953ZM114.432 131.918H118.466V123.849H126.536V119.814H118.466V111.745H114.432V119.814H106.362V123.849H114.432V131.918Z" fill="#051833"/>
</g>
<defs>
<clipPath id="clip0_1_276">
<rect width="126" height="126" fill="white" transform="translate(25.5 25)"/>
</clipPath>
</defs>
</svg>
