<svg width="20" height="20" viewBox="0 0 20 20" fill="none" xmlns="http://www.w3.org/2000/svg">
<path d="M15.8334 3.33337H4.16669C3.50365 3.33337 2.86776 3.59677 2.39892 4.06561C1.93008 4.53445 1.66669 5.17033 1.66669 5.83337V14.1667C1.66669 14.8297 1.93008 15.4656 2.39892 15.9345C2.86776 16.4033 3.50365 16.6667 4.16669 16.6667H15.8334C16.4964 16.6667 17.1323 16.4033 17.6011 15.9345C18.07 15.4656 18.3334 14.8297 18.3334 14.1667V5.83337C18.3334 5.17033 18.07 4.53445 17.6011 4.06561C17.1323 3.59677 16.4964 3.33337 15.8334 3.33337ZM15.4917 5.00004L10.5917 9.90004C10.5142 9.97815 10.4221 10.0401 10.3205 10.0824C10.219 10.1248 10.11 10.1465 10 10.1465C9.89001 10.1465 9.78109 10.1248 9.67954 10.0824C9.57799 10.0401 9.48582 9.97815 9.40835 9.90004L4.50835 5.00004H15.4917ZM16.6667 14.1667C16.6667 14.3877 16.5789 14.5997 16.4226 14.756C16.2663 14.9122 16.0544 15 15.8334 15H4.16669C3.94567 15 3.73371 14.9122 3.57743 14.756C3.42115 14.5997 3.33335 14.3877 3.33335 14.1667V6.17504L8.23335 11.075C8.70211 11.5432 9.33752 11.8062 10 11.8062C10.6625 11.8062 11.2979 11.5432 11.7667 11.075L16.6667 6.17504V14.1667Z" fill="#13CF8F"/>
</svg>
