<svg width="20" height="20" viewBox="0 0 20 20" fill="none" xmlns="http://www.w3.org/2000/svg">
<path d="M15.8333 9.16668H10.8333V4.16668C10.8333 3.94566 10.7455 3.7337 10.5893 3.57742C10.433 3.42114 10.221 3.33334 10 3.33334C9.779 3.33334 9.56703 3.42114 9.41075 3.57742C9.25447 3.7337 9.16668 3.94566 9.16668 4.16668V9.16668H4.16668C3.94566 9.16668 3.7337 9.25447 3.57742 9.41075C3.42114 9.56703 3.33334 9.779 3.33334 10C3.33334 10.221 3.42114 10.433 3.57742 10.5893C3.7337 10.7455 3.94566 10.8333 4.16668 10.8333H9.16668V15.8333C9.16668 16.0544 9.25447 16.2663 9.41075 16.4226C9.56703 16.5789 9.779 16.6667 10 16.6667C10.221 16.6667 10.433 16.5789 10.5893 16.4226C10.7455 16.2663 10.8333 16.0544 10.8333 15.8333V10.8333H15.8333C16.0544 10.8333 16.2663 10.7455 16.4226 10.5893C16.5789 10.433 16.6667 10.221 16.6667 10C16.6667 9.779 16.5789 9.56703 16.4226 9.41075C16.2663 9.25447 16.0544 9.16668 15.8333 9.16668Z" fill="#1B2430"/>
</svg>
