<svg width="20" height="20" viewBox="0 0 20 20" fill="none" xmlns="http://www.w3.org/2000/svg">
<path d="M9.99998 1.66663C8.23187 1.66663 6.53618 2.36901 5.28593 3.61925C4.03569 4.86949 3.33331 6.56518 3.33331 8.33329C3.33331 12.8333 9.20831 17.9166 9.45831 18.1333C9.60926 18.2624 9.80135 18.3333 9.99998 18.3333C10.1986 18.3333 10.3907 18.2624 10.5416 18.1333C10.8333 17.9166 16.6666 12.8333 16.6666 8.33329C16.6666 6.56518 15.9643 4.86949 14.714 3.61925C13.4638 2.36901 11.7681 1.66663 9.99998 1.66663ZM9.99998 16.375C8.22498 14.7083 4.99998 11.1166 4.99998 8.33329C4.99998 7.00721 5.52676 5.73544 6.46445 4.79776C7.40213 3.86008 8.6739 3.33329 9.99998 3.33329C11.3261 3.33329 12.5978 3.86008 13.5355 4.79776C14.4732 5.73544 15 7.00721 15 8.33329C15 11.1166 11.775 14.7166 9.99998 16.375ZM9.99998 4.99996C9.34071 4.99996 8.69624 5.19546 8.14808 5.56173C7.59992 5.928 7.17267 6.44859 6.92038 7.05768C6.66809 7.66677 6.60208 8.33699 6.73069 8.98359C6.85931 9.6302 7.17678 10.2241 7.64296 10.6903C8.10913 11.1565 8.70307 11.474 9.34968 11.6026C9.99628 11.7312 10.6665 11.6652 11.2756 11.4129C11.8847 11.1606 12.4053 10.7334 12.7715 10.1852C13.1378 9.63703 13.3333 8.99256 13.3333 8.33329C13.3333 7.44924 12.9821 6.60139 12.357 5.97627C11.7319 5.35115 10.884 4.99996 9.99998 4.99996ZM9.99998 9.99996C9.67034 9.99996 9.34811 9.90221 9.07403 9.71908C8.79995 9.53594 8.58633 9.27564 8.46018 8.9711C8.33403 8.66655 8.30103 8.33144 8.36534 8.00814C8.42965 7.68484 8.58838 7.38787 8.82147 7.15478C9.05456 6.92169 9.35153 6.76296 9.67483 6.69865C9.99813 6.63434 10.3332 6.66735 10.6378 6.79349C10.9423 6.91964 11.2026 7.13326 11.3858 7.40734C11.5689 7.68142 11.6666 8.00366 11.6666 8.33329C11.6666 8.77532 11.4911 9.19924 11.1785 9.5118C10.8659 9.82436 10.442 9.99996 9.99998 9.99996Z" fill="#13CF8F"/>
</svg>
