<svg width="101" height="100" viewBox="0 0 101 100" fill="none" xmlns="http://www.w3.org/2000/svg">
<g clip-path="url(#clip0_1_114)">
<path d="M67.1488 45.2012H66.7713C65.5093 45.2012 64.3224 45.6922 63.4298 46.5848L63.1067 46.9079C61.4303 48.5843 58.6502 48.8594 56.6795 47.5446L55.435 46.7144C53.4419 47.7589 50.7946 48.4004 47.8802 48.4004L51.0794 57.9979H52.6789C53.5619 57.9979 54.2785 58.7145 54.2785 59.5975V61.1971H64.0648L65.0758 59.1752C66.1491 57.0285 67.7727 55.1906 69.7706 53.8582C71.087 52.9816 71.874 51.5116 71.874 49.9264C71.874 47.3206 69.753 45.2012 67.1488 45.2012Z" fill="#13CF8F"/>
<path d="M82.9784 32.6476L70.3528 31.3184L71.3078 35.1382C71.826 37.2065 73.3425 38.8444 75.3659 39.5195C76.3465 39.8458 77.0823 40.6408 77.3318 41.6405L77.4806 42.234C78.154 44.9229 80.5582 46.8008 83.3303 46.8008C84.5252 46.8008 85.6817 46.4505 86.6734 45.7883L88.6713 44.4558C89.5095 43.8975 90.4853 43.6016 91.4946 43.6016C92.7839 43.6016 94.0636 43.2881 95.2153 42.709C93.5533 37.3376 88.8345 33.2635 82.9784 32.6476Z" fill="#13CF8F"/>
<path d="M23.8863 61.1971H41.3267C41.725 60.8612 42.1424 60.5461 42.5775 60.2566C43.894 59.3784 44.681 57.9084 44.681 56.3248C44.681 53.7191 42.5615 51.5996 39.9558 51.5996H39.5783C38.3162 51.5996 37.1293 52.0907 36.2368 52.9833L35.9136 53.3064C34.2357 54.9827 31.4556 55.2595 29.4865 53.9414L28.2404 53.1128C26.2489 54.1573 23.6016 54.7988 20.6871 54.7988L22.8194 61.1971H23.8863Z" fill="#13CF8F"/>
<path d="M97.4675 56.3983V46.9655C97.4675 38.7548 91.3107 31.9166 83.1463 31.0576L66.3267 29.2853C64.5191 26.9163 61.9518 25.3023 59.0773 24.6944V18.4512C59.0773 16.4421 57.4425 14.809 55.4334 14.809C54.1602 14.809 52.9637 15.4872 52.311 16.5765L49.459 21.3305C48.9407 21.2585 48.4176 21.2073 47.8802 21.2073C47.3427 21.2073 46.818 21.2585 46.3014 21.3321L43.4493 16.5797C42.7951 15.4872 41.5986 14.809 40.3253 14.809C38.3162 14.809 36.683 16.4421 36.683 18.4512V24.6944C34.9379 25.0639 33.3047 25.7981 31.8843 26.8523V24.8496C31.8843 22.8405 30.2495 21.2073 28.2404 21.2073C26.9671 21.2073 25.7706 21.8855 25.118 22.9749L22.2659 27.7289C21.7477 27.6569 21.2246 27.6057 20.6871 27.6057C20.1497 27.6057 19.625 27.6569 19.1083 27.7305L16.2547 22.9765C15.602 21.8855 14.4055 21.2073 13.1323 21.2073C11.1232 21.2073 9.49 22.8405 9.49 24.8496V31.0928C6.3612 31.755 3.57471 33.593 1.76078 36.3155L0.666656 37.9566L9.49 41.4853V44.4782C8.47106 45.6315 7.89041 46.9655 7.89041 48.4004C7.89041 52.6393 12.9131 56.0064 19.5226 56.3631L20.6008 59.5975H11.0896C11.0896 57.8331 9.65476 56.3983 7.89041 56.3983H4.69123C2.92688 56.3983 1.49205 57.8331 1.49205 59.5975V81.9918C1.49205 83.7561 2.92688 85.1909 4.69123 85.1909H7.89041C9.65476 85.1909 11.0896 83.7561 11.0896 81.9918H46.2806C46.2806 83.7561 47.7154 85.1909 49.4798 85.1909H52.6789C54.4433 85.1909 55.8781 83.7561 55.8781 81.9918H91.0691C91.0691 83.7561 92.5039 85.1909 94.2683 85.1909H97.4675C99.2318 85.1909 100.667 83.7561 100.667 81.9918V59.5975C100.667 57.8331 99.2302 56.3983 97.4675 56.3983ZM59.0389 31.6558C58.9461 30.2706 58.6054 28.9557 58.052 27.7528C59.8547 28.06 61.5215 28.879 62.8379 30.1346L59.0389 31.6558ZM47.8802 46.8008C42.224 46.8008 38.2826 44.2718 38.2826 42.002C38.2826 39.7322 42.224 37.2032 47.8802 37.2032C53.5363 37.2032 57.4777 39.7322 57.4777 42.002C57.4777 44.2718 53.5363 46.8008 47.8802 46.8008ZM31.8459 38.0542C31.7531 36.669 31.4124 35.3541 30.8589 34.1512C32.6617 34.4583 34.3284 35.2773 35.6449 36.533L31.8459 38.0542ZM55.0543 18.2225C55.2591 17.8818 55.8781 18.0513 55.8781 18.4512V24.4065H55.7006C54.808 23.5331 53.7667 22.8149 52.623 22.2758L55.0543 18.2225ZM55.8781 32.4045V35.722C53.7011 34.6455 50.9338 34.004 47.8802 34.004C44.8266 34.004 42.0593 34.6455 39.8822 35.722V32.4045C39.8822 27.9944 43.4701 24.4065 47.8802 24.4065C52.2902 24.4065 55.8781 27.9944 55.8781 32.4045ZM40.7044 18.2241L43.1358 22.2774C41.9921 22.8149 40.9523 23.5331 40.0582 24.4065H39.8806V18.4512C39.8822 18.0513 40.4997 17.8786 40.7044 18.2241ZM37.7068 27.7544C37.1549 28.9573 36.8126 30.2722 36.7198 31.6574L32.9208 30.1378C34.2373 28.879 35.904 28.06 37.7068 27.7544ZM27.8613 24.6208C28.066 24.2801 28.6851 24.4497 28.6851 24.8496V30.3202L28.418 30.7217C27.5446 29.8867 26.5368 29.1941 25.4315 28.6742L27.8613 24.6208ZM28.6851 38.8028V42.1204C26.508 41.0438 23.7407 40.4024 20.6871 40.4024C17.6335 40.4024 14.8662 41.0438 12.6892 42.1204V38.8028C12.6892 34.3927 16.2771 30.8049 20.6871 30.8049C25.0972 30.8049 28.6851 34.3927 28.6851 38.8028ZM13.5114 24.6224L15.9427 28.6758C14.799 29.2133 13.7593 29.9315 12.8651 30.8049H12.6892V24.8496C12.6892 24.4497 13.3066 24.2769 13.5114 24.6224ZM10.5137 34.1528C9.96188 35.3557 9.61957 36.6706 9.52679 38.0558L5.72776 36.5362C7.04422 35.2773 8.711 34.4583 10.5137 34.1528ZM11.0896 48.4004C11.0896 46.1305 15.031 43.6016 20.6871 43.6016C26.3433 43.6016 30.2847 46.1305 30.2847 48.4004C30.2847 50.6702 26.3433 53.1991 20.6871 53.1991C15.031 53.1991 11.0896 50.6702 11.0896 48.4004ZM22.8658 56.2783C28.9666 55.6481 33.4839 52.4185 33.4839 48.4004C33.4839 46.9655 32.9032 45.6315 31.8843 44.4782V41.4853L35.4674 40.0521C35.2258 40.6759 35.0834 41.3254 35.0834 42.002C35.0834 46.2409 40.1062 49.6081 46.7157 49.9648L48.8799 56.4591C47.4019 56.7406 46.279 58.0395 46.279 59.5975H23.9711L22.8658 56.2783ZM46.2806 62.7967V65.9959H11.0896V62.7967H46.2806ZM46.2806 69.195V72.3942H11.0896V69.195H46.2806ZM4.69123 81.9918V59.5975H7.89041L7.89361 81.9918H4.69123ZM11.0896 78.7926V75.5934H46.2806V78.7926H11.0896ZM49.4798 81.9918V59.5975H52.6789L52.6821 81.9918H49.4798ZM55.8781 62.7967H91.0691V65.9959H55.8781V62.7967ZM55.8781 69.195H91.0691V72.3942H55.8781V69.195ZM55.8781 78.7926V75.5934H91.0691V78.7926H55.8781ZM91.0691 59.5975H55.8781C55.8781 57.8331 54.4433 56.3983 52.6789 56.3983H52.2311L50.0588 49.88C56.1597 49.2497 60.6769 46.0202 60.6769 42.002C60.6769 40.5672 60.0962 39.2331 59.0773 38.0798V35.087L65.7012 32.4364L82.812 34.2376C89.3432 34.9254 94.2683 40.396 94.2683 46.9639V56.3983C92.5039 56.3983 91.0691 57.8331 91.0691 59.5975ZM94.2683 81.9918V59.5975H97.4675L97.4707 81.9918H94.2683Z" fill="#051833"/>
<path d="M43.0814 32.4045C43.9648 32.4045 44.681 31.6883 44.681 30.8049C44.681 29.9215 43.9648 29.2053 43.0814 29.2053C42.198 29.2053 41.4818 29.9215 41.4818 30.8049C41.4818 31.6883 42.198 32.4045 43.0814 32.4045Z" fill="#051833"/>
<path d="M44.681 43.6016C45.5644 43.6016 46.2806 42.8855 46.2806 42.0021C46.2806 41.1186 45.5644 40.4025 44.681 40.4025C43.7976 40.4025 43.0814 41.1186 43.0814 42.0021C43.0814 42.8855 43.7976 43.6016 44.681 43.6016Z" fill="#051833"/>
<path d="M51.0794 43.6016C51.9628 43.6016 52.6789 42.8855 52.6789 42.0021C52.6789 41.1186 51.9628 40.4025 51.0794 40.4025C50.1959 40.4025 49.4798 41.1186 49.4798 42.0021C49.4798 42.8855 50.1959 43.6016 51.0794 43.6016Z" fill="#051833"/>
<path d="M52.6789 32.4045C53.5624 32.4045 54.2785 31.6883 54.2785 30.8049C54.2785 29.9215 53.5624 29.2053 52.6789 29.2053C51.7955 29.2053 51.0794 29.9215 51.0794 30.8049C51.0794 31.6883 51.7955 32.4045 52.6789 32.4045Z" fill="#051833"/>
<path d="M15.8884 38.8028C16.7718 38.8028 17.488 38.0866 17.488 37.2032C17.488 36.3198 16.7718 35.6036 15.8884 35.6036C15.0049 35.6036 14.2888 36.3198 14.2888 37.2032C14.2888 38.0866 15.0049 38.8028 15.8884 38.8028Z" fill="#051833"/>
<path d="M17.4879 50C18.3714 50 19.0875 49.2838 19.0875 48.4004C19.0875 47.5169 18.3714 46.8008 17.4879 46.8008C16.6045 46.8008 15.8884 47.5169 15.8884 48.4004C15.8884 49.2838 16.6045 50 17.4879 50Z" fill="#051833"/>
<path d="M23.8863 50C24.7697 50 25.4859 49.2838 25.4859 48.4004C25.4859 47.5169 24.7697 46.8008 23.8863 46.8008C23.0029 46.8008 22.2867 47.5169 22.2867 48.4004C22.2867 49.2838 23.0029 50 23.8863 50Z" fill="#051833"/>
<path d="M25.4859 38.8028C26.3693 38.8028 27.0855 38.0866 27.0855 37.2032C27.0855 36.3198 26.3693 35.6036 25.4859 35.6036C24.6025 35.6036 23.8863 36.3198 23.8863 37.2032C23.8863 38.0866 24.6025 38.8028 25.4859 38.8028Z" fill="#051833"/>
</g>
<defs>
<clipPath id="clip0_1_114">
<rect width="100" height="100" fill="white" transform="translate(0.666656)"/>
</clipPath>
</defs>
</svg>
