<svg width="68" height="68" viewBox="0 0 68 68" fill="none" xmlns="http://www.w3.org/2000/svg">
<path d="M47.3333 28.2333L30.6667 18.6C29.6537 18.0152 28.5047 17.7071 27.335 17.7068C26.1654 17.7065 25.0162 18.014 24.003 18.5983C22.9897 19.1826 22.148 20.0232 21.5624 21.0357C20.9768 22.0482 20.6679 23.197 20.6667 24.3667V43.6333C20.6679 44.8024 20.9765 45.9506 21.5615 46.9628C22.1466 47.975 22.9875 48.8155 24 49.4C25.0135 49.9851 26.1631 50.2932 27.3333 50.2932C28.5036 50.2932 29.6532 49.9851 30.6667 49.4L47.3333 39.7667C48.3436 39.1806 49.1822 38.3395 49.7651 37.3274C50.348 36.3154 50.6549 35.1679 50.6549 34C50.6549 32.8321 50.348 31.6846 49.7651 30.6726C49.1822 29.6605 48.3436 28.8194 47.3333 28.2333ZM44 34L27.3333 43.6333V24.3667L44 34ZM34 0.666672C27.4073 0.666672 20.9626 2.62164 15.481 6.28435C9.99936 9.94707 5.72694 15.153 3.20402 21.2439C0.681099 27.3348 0.0209882 34.037 1.30716 40.503C2.59334 46.9691 5.76803 52.9085 10.4298 57.5702C15.0915 62.232 21.031 65.4067 27.497 66.6929C33.963 67.979 40.6652 67.3189 46.7561 64.796C52.847 62.2731 58.0529 58.0007 61.7157 52.519C65.3784 47.0374 67.3333 40.5927 67.3333 34C67.3333 29.6226 66.4711 25.2881 64.796 21.2439C63.1208 17.1997 60.6655 13.5251 57.5702 10.4298C54.4749 7.33449 50.8003 4.87918 46.7561 3.20402C42.7119 1.52886 38.3774 0.666672 34 0.666672ZM34 60.6667C28.7258 60.6667 23.5701 59.1027 19.1848 56.1725C14.7995 53.2424 11.3816 49.0776 9.36322 44.2049C7.34488 39.3322 6.81679 33.9704 7.84573 28.7976C8.87467 23.6248 11.4144 18.8732 15.1438 15.1438C18.8732 11.4144 23.6248 8.87467 28.7976 7.84573C33.9704 6.81679 39.3322 7.34488 44.2049 9.36322C49.0776 11.3816 53.2424 14.7995 56.1725 19.1848C59.1027 23.5701 60.6667 28.7258 60.6667 34C60.6667 41.0724 57.8572 47.8552 52.8562 52.8562C47.8552 57.8572 41.0724 60.6667 34 60.6667Z" fill="white"/>
</svg>
