<svg width="21" height="20" viewBox="0 0 21 20" fill="none" xmlns="http://www.w3.org/2000/svg">
<path d="M18 10C18 14.1421 14.6421 17.5 10.5 17.5C6.35786 17.5 3 14.1421 3 10C3 5.85786 6.35786 2.5 10.5 2.5C14.6421 2.5 18 5.85786 18 10Z" fill="#13CF8F"/>
<path fill-rule="evenodd" clip-rule="evenodd" d="M10.5 3.125C6.70304 3.125 3.625 6.20304 3.625 10C3.625 13.797 6.70304 16.875 10.5 16.875C14.297 16.875 17.375 13.797 17.375 10C17.375 6.20304 14.297 3.125 10.5 3.125ZM2.375 10C2.375 5.51269 6.01269 1.875 10.5 1.875C14.9873 1.875 18.625 5.51269 18.625 10C18.625 14.4873 14.9873 18.125 10.5 18.125C6.01269 18.125 2.375 14.4873 2.375 10Z" fill="#13CF8F"/>
<path d="M13.9375 8.125L9.35414 12.5L7.0625 10.3125" stroke="white" stroke-linecap="round" stroke-linejoin="round"/>
</svg>
