<svg width="101" height="100" viewBox="0 0 101 100" fill="none" xmlns="http://www.w3.org/2000/svg">
<path d="M25.3333 90.625H30.0208C34.3349 90.625 37.8333 87.1266 37.8333 82.8125V78.125H33.1458C28.8318 78.125 25.3333 81.6234 25.3333 85.9375V90.625Z" fill="#13CF8F"/>
<path d="M25.3333 90.625H20.6458C16.3318 90.625 12.8333 87.1266 12.8333 82.8125V78.125H17.5208C21.8349 78.125 25.3333 81.6234 25.3333 85.9375V90.625Z" fill="#13CF8F"/>
<path d="M25.3333 71.875H30.0208C34.3349 71.875 37.8333 68.3766 37.8333 64.0625V59.375H33.1458C28.8318 59.375 25.3333 62.8734 25.3333 67.1875V71.875Z" fill="#13CF8F"/>
<path d="M25.3333 71.875H20.6458C16.3318 71.875 12.8333 68.3766 12.8333 64.0625V59.375H17.5208C21.8349 59.375 25.3333 62.8734 25.3333 67.1875V71.875Z" fill="#13CF8F"/>
<path d="M25.3333 53.125H30.0208C34.3349 53.125 37.8333 49.6266 37.8333 45.3125V40.625H33.1458C28.8318 40.625 25.3333 44.1234 25.3333 48.4375V53.125Z" fill="#13CF8F"/>
<path d="M25.3333 53.125H20.6458C16.3318 53.125 12.8333 49.6266 12.8333 45.3125V40.625H17.5208C21.8349 40.625 25.3333 44.1234 25.3333 48.4375V53.125Z" fill="#13CF8F"/>
<path d="M35.3333 24.5312C34.9271 24.8359 34.4349 25 33.9271 25C32.6333 25 31.5833 23.95 31.5833 22.6562V22.4281C31.5833 22.2922 31.6068 22.1578 31.6302 22.025L31.6224 22.0234C28.0364 22.7328 25.3333 25.8937 25.3333 29.6875V34.375H30.0208C34.3349 34.375 37.8333 30.8766 37.8333 26.5625V22.6562L35.3333 24.5312Z" fill="#13CF8F"/>
<path d="M25.3333 34.375H20.6458C16.3318 34.375 12.8333 30.8766 12.8333 26.5625V21.875H17.5208C21.8349 21.875 25.3333 25.3734 25.3333 29.6875V34.375Z" fill="#13CF8F"/>
<path d="M75.3333 90.625H70.6458C66.3318 90.625 62.8333 87.1266 62.8333 82.8125V78.125H67.5208C71.8349 78.125 75.3333 81.6234 75.3333 85.9375V90.625Z" fill="#13CF8F"/>
<path d="M75.3333 90.625H80.0208C84.3349 90.625 87.8333 87.1266 87.8333 82.8125V78.125H83.1458C78.8318 78.125 75.3333 81.6234 75.3333 85.9375V90.625Z" fill="#13CF8F"/>
<path d="M75.3333 71.875H70.6458C66.3318 71.875 62.8333 68.3766 62.8333 64.0625V59.375H67.5208C71.8349 59.375 75.3333 62.8734 75.3333 67.1875V71.875Z" fill="#13CF8F"/>
<path d="M75.3333 71.875H80.0208C84.3349 71.875 87.8333 68.3766 87.8333 64.0625V59.375H83.1458C78.8318 59.375 75.3333 62.8734 75.3333 67.1875V71.875Z" fill="#13CF8F"/>
<path d="M75.3333 53.125H70.6458C66.3318 53.125 62.8333 49.6266 62.8333 45.3125V40.625H67.5208C71.8349 40.625 75.3333 44.1234 75.3333 48.4375V53.125Z" fill="#13CF8F"/>
<path d="M75.3333 53.125H80.0208C84.3349 53.125 87.8333 49.6266 87.8333 45.3125V40.625H83.1458C78.8318 40.625 75.3333 44.1234 75.3333 48.4375V53.125Z" fill="#13CF8F"/>
<path d="M75.3333 34.375H80.0208C84.3349 34.375 87.8333 30.8766 87.8333 26.5625V21.875H83.1458C78.8318 21.875 75.3333 25.3734 75.3333 29.6875V34.375Z" fill="#13CF8F"/>
<path d="M69.0442 22.0234L69.0364 22.025C69.0599 22.1578 69.0833 22.2922 69.0833 22.4281V22.6562C69.0833 23.95 68.0333 25 66.7396 25C66.2318 25 65.7396 24.8359 65.3333 24.5312L62.8333 22.6562V26.5625C62.8333 30.8766 66.3318 34.375 70.6458 34.375H75.3333V29.6875C75.3333 25.8937 72.6302 22.7328 69.0442 22.0234Z" fill="#13CF8F"/>
<path d="M55.0208 32.8125V20.3125C56.7443 20.3125 58.1458 18.9109 58.1458 17.1875V10.9375C58.1458 9.21406 56.7443 7.8125 55.0208 7.8125H45.6458C43.9224 7.8125 42.5208 9.21406 42.5208 10.9375V17.1875C42.5208 18.9109 43.9224 20.3125 45.6458 20.3125V32.8125C45.6458 34.5359 47.0474 35.9375 48.7708 35.9375H51.8958C53.6193 35.9375 55.0208 34.5359 55.0208 32.8125ZM45.6458 10.9375H55.0208L55.0224 17.1875H45.6458V10.9375ZM48.7708 20.3125H51.8958V32.8125H48.7708V20.3125Z" fill="#051833"/>
<path d="M45.6458 92.1875C45.6458 93.9109 44.2443 95.3125 42.5208 95.3125H8.14581C6.42238 95.3125 5.02081 93.9109 5.02081 92.1875V10.9375C5.02081 9.21406 6.42238 7.8125 8.14581 7.8125H23.7708V4.6875H8.14581C4.69894 4.6875 1.89581 7.49062 1.89581 10.9375V92.1875C1.89581 95.6344 4.69894 98.4375 8.14581 98.4375H42.5208C45.9677 98.4375 48.7708 95.6344 48.7708 92.1875V39.0625H45.6458V92.1875Z" fill="#051833"/>
<path d="M26.5583 19.0266L30.8333 19.8813L30.4318 20.6828C30.163 21.2219 30.0208 21.825 30.0208 22.4281V22.6562C30.0208 24.8094 31.7739 26.5625 33.9271 26.5625C34.7661 26.5625 35.5974 26.2859 36.2708 25.7812L41.8958 21.5625L40.0208 19.0625L34.3974 23.2797C33.913 23.6438 33.1458 23.2578 33.1458 22.6562V22.4281C33.1458 22.3078 33.1755 22.1859 33.2286 22.0781L35.4583 17.6187L27.1724 15.9609C27.013 15.9297 26.8958 15.7875 26.8958 15.625C26.8958 15.4625 27.013 15.3203 27.1724 15.2875L35.8833 13.5453L30.1677 5.925C30.0724 5.79844 30.0208 5.64219 30.0208 5.41875C30.0208 4.84375 30.7802 4.48906 31.2208 4.85625L39.9583 12.1375L41.9583 9.7375L33.2208 2.45625C32.5286 1.87969 31.6521 1.5625 30.7521 1.5625C28.6255 1.5625 26.8958 3.29219 26.8958 5.48594C26.8958 6.31406 27.1693 7.13594 27.6677 7.8L30.4083 11.4547L26.5583 12.225C24.9427 12.5469 23.7708 13.9781 23.7708 15.625C23.7708 17.2719 24.9427 18.7031 26.5583 19.0266Z" fill="#051833"/>
<path d="M20.0208 83.125L18.1458 85.625L25.3333 91.0156L32.5208 85.625L30.6458 83.125L25.3333 87.1094L20.0208 83.125Z" fill="#051833"/>
<path d="M30.6458 64.375L25.3333 68.3594L20.0208 64.375L18.1458 66.875L25.3333 72.2656L32.5208 66.875L30.6458 64.375Z" fill="#051833"/>
<path d="M30.6458 45.625L25.3333 49.6094L20.0208 45.625L18.1458 48.125L25.3333 53.5156L32.5208 48.125L30.6458 45.625Z" fill="#051833"/>
<path d="M30.6458 26.875L25.3333 30.8594L20.0208 26.875L18.1458 29.375L25.3333 34.7656L32.5208 29.375L30.6458 26.875Z" fill="#051833"/>
<path d="M69.4458 4.85625C69.888 4.49063 70.6458 4.81719 70.6458 5.48594C70.6458 5.64375 70.5943 5.8 70.5005 5.925L64.7833 13.5469L73.4943 15.2891C73.6536 15.3203 73.7708 15.4625 73.7708 15.625C73.7708 15.7875 73.6536 15.9297 73.4943 15.9625L65.2083 17.6203L67.438 22.0781C67.4911 22.1859 67.5208 22.3078 67.5208 22.4281V22.6562C67.5208 23.2578 66.7521 23.6406 66.2708 23.2812L60.6458 19.0625L58.7708 21.5625L64.3974 25.7828C65.0692 26.2859 65.9005 26.5625 66.7396 26.5625C68.8927 26.5625 70.6458 24.8094 70.6458 22.6562V22.4281C70.6458 21.825 70.5036 21.2219 70.2333 20.6812L69.8333 19.8813L74.1083 19.0266C75.7239 18.7031 76.8958 17.2719 76.8958 15.625C76.8958 13.9781 75.7239 12.5469 74.1083 12.2234L70.2583 11.4531L73.0005 7.79687C73.4974 7.13437 73.7708 6.31406 73.7708 5.41875C73.7708 3.29219 72.0411 1.5625 69.9146 1.5625C69.0146 1.5625 68.138 1.87969 67.4458 2.45625L58.7083 9.7375L60.7083 12.1375L69.4458 4.85625Z" fill="#051833"/>
<path d="M92.5208 4.6875H76.8958V7.8125H92.5208C94.2443 7.8125 95.6458 9.21406 95.6458 10.9375V92.1875C95.6458 93.9109 94.2443 95.3125 92.5208 95.3125H58.1458C56.4224 95.3125 55.0208 93.9109 55.0208 92.1875V39.0625H51.8958V92.1875C51.8958 95.6344 54.6989 98.4375 58.1458 98.4375H92.5208C95.9677 98.4375 98.7708 95.6344 98.7708 92.1875V10.9375C98.7708 7.49062 95.9677 4.6875 92.5208 4.6875Z" fill="#051833"/>
<path d="M70.0208 83.125L68.1458 85.625L75.3333 91.0156L82.5208 85.625L80.6458 83.125L75.3333 87.1094L70.0208 83.125Z" fill="#051833"/>
<path d="M80.6458 64.375L75.3333 68.3594L70.0208 64.375L68.1458 66.875L75.3333 72.2656L82.5208 66.875L80.6458 64.375Z" fill="#051833"/>
<path d="M80.6458 45.625L75.3333 49.6094L70.0208 45.625L68.1458 48.125L75.3333 53.5156L82.5208 48.125L80.6458 45.625Z" fill="#051833"/>
<path d="M80.6458 26.875L75.3333 30.8594L70.0208 26.875L68.1458 29.375L75.3333 34.7656L82.5208 29.375L80.6458 26.875Z" fill="#051833"/>
</svg>
