<svg width="213" height="40" viewBox="0 0 213 40" fill="none" xmlns="http://www.w3.org/2000/svg">
<path d="M16.1904 28.3598C16.5564 28.3598 16.9188 28.2879 17.2569 28.1478C17.595 28.0078 17.9022 27.8026 18.1609 27.5438C18.4197 27.2851 18.625 26.9779 18.765 26.6398C18.9051 26.3017 18.9772 25.9393 18.9772 25.5734C18.9772 20.3999 21.0323 15.4384 24.6905 11.7802C28.3486 8.12198 33.3103 6.06683 38.4837 6.06683C43.6571 6.06683 48.6189 8.12198 52.2769 11.7802C55.9352 15.4384 57.9903 20.3999 57.9903 25.5734C57.9975 26.3076 58.2944 27.0093 58.8163 27.5259C59.3379 28.0425 60.0426 28.3323 60.777 28.3323C61.5112 28.3323 62.2159 28.0425 62.7375 27.5259C63.2594 27.0093 63.5562 26.3076 63.5635 25.5734C63.5635 22.2799 62.9147 19.0186 61.6545 15.9758C60.3939 12.933 58.5467 10.1682 56.2179 7.83933C53.8888 5.51046 51.124 3.6631 48.0814 2.40274C45.0384 1.14236 41.7773 0.493652 38.4837 0.493652C35.1901 0.493652 31.9291 1.14236 28.8861 2.40274C25.8433 3.6631 23.0785 5.51046 20.7497 7.83933C18.4208 10.1682 16.5734 12.933 15.3131 15.9758C14.0527 19.0186 13.404 22.2799 13.404 25.5734C13.404 26.3124 13.6976 27.0212 14.2201 27.5437C14.7427 28.0663 15.4514 28.3598 16.1904 28.3598Z" fill="#13CF8F"/>
<path d="M74.153 33.933H49.6213C51.4376 31.5249 52.4186 28.5899 52.4155 25.5734C52.4155 21.878 50.9474 18.3341 48.3346 15.7211C45.7215 13.1081 42.1775 11.6401 38.4821 11.6401C34.7871 11.6401 31.2431 13.1081 28.6299 15.7211C26.017 18.3341 24.549 21.878 24.549 25.5734C24.549 26.3125 24.8426 27.0213 25.3652 27.5439C25.8879 28.0665 26.5967 28.3601 27.3358 28.3601C28.0749 28.3601 28.7838 28.0665 29.3063 27.5439C29.829 27.0213 30.1225 26.3125 30.1225 25.5734C30.1225 23.9199 30.6127 22.3036 31.5313 20.9288C32.4499 19.554 33.7555 18.4824 35.2831 17.8496C36.8107 17.2168 38.4916 17.0512 40.1132 17.3738C41.7348 17.6963 43.2246 18.4925 44.3936 19.6616C45.5629 20.8308 46.3591 22.3204 46.6818 23.9421C47.0042 25.5637 46.8387 27.2446 46.2061 28.7721C45.5732 30.2997 44.5018 31.6056 43.127 32.5242C41.7521 33.4428 40.1357 33.933 38.4824 33.933H2.81464C2.44636 33.9294 2.08099 33.9987 1.73968 34.1372C1.39836 34.2755 1.08787 34.4802 0.826145 34.7392C0.56442 34.9985 0.356649 35.3068 0.214858 35.6467C0.0730655 35.9867 6.10352e-05 36.3514 6.10352e-05 36.7197C6.10352e-05 37.0878 0.0730655 37.4525 0.214858 37.7925C0.356649 38.1324 0.56442 38.4407 0.826145 38.7C1.08787 38.959 1.39836 39.1637 1.73968 39.302C2.08099 39.4405 2.44636 39.5098 2.81464 39.5062H74.153C74.8871 39.499 75.5888 39.2021 76.1054 38.6802C76.622 38.1586 76.9119 37.4539 76.9119 36.7197C76.9119 35.9853 76.622 35.2806 76.1054 34.759C75.5888 34.2371 74.8871 33.9402 74.153 33.933Z" fill="#13CF8F"/>
<path d="M113.028 11.5455V29H109.841L102.247 18.0142H102.119V29H98.4288V11.5455H101.667L109.202 22.5227H109.355V11.5455H113.028ZM122.475 29.2557C121.128 29.2557 119.969 28.983 118.998 28.4375C118.032 27.8864 117.288 27.108 116.765 26.1023C116.242 25.0909 115.981 23.8949 115.981 22.5142C115.981 21.1676 116.242 19.9858 116.765 18.9688C117.288 17.9517 118.023 17.1591 118.972 16.5909C119.927 16.0227 121.046 15.7386 122.33 15.7386C123.194 15.7386 123.998 15.8778 124.742 16.1562C125.492 16.429 126.145 16.8409 126.702 17.392C127.265 17.9432 127.702 18.6364 128.015 19.4716C128.327 20.3011 128.484 21.2727 128.484 22.3864V23.3835H117.43V21.1335H125.066C125.066 20.6108 124.952 20.1477 124.725 19.7443C124.498 19.3409 124.182 19.0256 123.779 18.7983C123.381 18.5653 122.918 18.4489 122.39 18.4489C121.839 18.4489 121.35 18.5767 120.924 18.8324C120.503 19.0824 120.174 19.4205 119.935 19.8466C119.697 20.267 119.574 20.7358 119.569 21.2528V23.392C119.569 24.0398 119.688 24.5994 119.927 25.071C120.171 25.5426 120.515 25.9062 120.958 26.1619C121.401 26.4176 121.927 26.5455 122.535 26.5455C122.938 26.5455 123.307 26.4886 123.643 26.375C123.978 26.2614 124.265 26.0909 124.503 25.8636C124.742 25.6364 124.924 25.358 125.049 25.0284L128.407 25.25C128.236 26.0568 127.887 26.7614 127.359 27.3636C126.836 27.9602 126.16 28.4261 125.33 28.7614C124.506 29.0909 123.555 29.2557 122.475 29.2557ZM134.153 15.9091L136.556 20.4858L139.019 15.9091H142.743L138.951 22.4545L142.846 29H139.138L136.556 24.4744L134.016 29H130.266L134.153 22.4545L130.403 15.9091H134.153ZM152.363 15.9091V18.6364H144.479V15.9091H152.363ZM146.269 12.7727H149.9V24.9773C149.9 25.3125 149.951 25.5739 150.053 25.7614C150.155 25.9432 150.297 26.071 150.479 26.1449C150.667 26.2187 150.883 26.2557 151.127 26.2557C151.297 26.2557 151.468 26.2415 151.638 26.2131C151.809 26.179 151.94 26.1534 152.03 26.1364L152.601 28.8381C152.42 28.8949 152.164 28.9602 151.834 29.0341C151.505 29.1136 151.104 29.1619 150.633 29.179C149.758 29.2131 148.991 29.0966 148.332 28.8295C147.678 28.5625 147.17 28.1477 146.806 27.5852C146.442 27.0227 146.263 26.3125 146.269 25.4545V12.7727ZM170.697 17.6562H166.964C166.895 17.1733 166.756 16.7443 166.546 16.3693C166.336 15.9886 166.066 15.6648 165.736 15.3977C165.407 15.1307 165.026 14.9261 164.594 14.7841C164.168 14.642 163.705 14.571 163.205 14.571C162.302 14.571 161.515 14.7955 160.844 15.2443C160.174 15.6875 159.654 16.3352 159.285 17.1875C158.915 18.0341 158.731 19.0625 158.731 20.2727C158.731 21.517 158.915 22.5625 159.285 23.4091C159.66 24.2557 160.182 24.8949 160.853 25.3267C161.523 25.7585 162.299 25.9744 163.18 25.9744C163.674 25.9744 164.131 25.9091 164.552 25.7784C164.978 25.6477 165.356 25.4574 165.685 25.2074C166.015 24.9517 166.288 24.642 166.503 24.2784C166.725 23.9148 166.878 23.5 166.964 23.0341L170.697 23.0511C170.6 23.8523 170.359 24.625 169.972 25.3693C169.591 26.108 169.077 26.7699 168.43 27.3551C167.788 27.9347 167.02 28.3949 166.128 28.7358C165.242 29.071 164.239 29.2386 163.12 29.2386C161.563 29.2386 160.171 28.8864 158.944 28.1818C157.722 27.4773 156.756 26.4574 156.046 25.1222C155.341 23.7869 154.989 22.1705 154.989 20.2727C154.989 18.3693 155.347 16.75 156.063 15.4148C156.779 14.0795 157.751 13.0625 158.978 12.3636C160.205 11.6591 161.586 11.3068 163.12 11.3068C164.131 11.3068 165.069 11.4489 165.932 11.733C166.802 12.017 167.572 12.4318 168.242 12.9773C168.913 13.517 169.458 14.179 169.878 14.9631C170.305 15.7472 170.577 16.6449 170.697 17.6562ZM173.775 29V15.9091H177.295V18.1932H177.431C177.67 17.3807 178.07 16.767 178.633 16.3523C179.195 15.9318 179.843 15.7216 180.576 15.7216C180.758 15.7216 180.954 15.733 181.164 15.7557C181.374 15.7784 181.559 15.8097 181.718 15.8494V19.071C181.547 19.0199 181.312 18.9744 181.011 18.9347C180.709 18.8949 180.434 18.875 180.184 18.875C179.65 18.875 179.172 18.9915 178.752 19.2244C178.337 19.4517 178.008 19.7699 177.763 20.179C177.525 20.5881 177.405 21.0597 177.405 21.5938V29H173.775ZM189.4 29.2557C188.077 29.2557 186.932 28.9744 185.966 28.4119C185.006 27.8437 184.264 27.054 183.741 26.0426C183.219 25.0256 182.957 23.8466 182.957 22.5057C182.957 21.1534 183.219 19.9716 183.741 18.9602C184.264 17.9432 185.006 17.1534 185.966 16.5909C186.932 16.0227 188.077 15.7386 189.4 15.7386C190.724 15.7386 191.866 16.0227 192.827 16.5909C193.792 17.1534 194.537 17.9432 195.06 18.9602C195.582 19.9716 195.844 21.1534 195.844 22.5057C195.844 23.8466 195.582 25.0256 195.06 26.0426C194.537 27.054 193.792 27.8437 192.827 28.4119C191.866 28.9744 190.724 29.2557 189.4 29.2557ZM189.417 26.4432C190.02 26.4432 190.523 26.2727 190.926 25.9318C191.329 25.5852 191.633 25.1136 191.838 24.517C192.048 23.9205 192.153 23.2415 192.153 22.4801C192.153 21.7188 192.048 21.0398 191.838 20.4432C191.633 19.8466 191.329 19.375 190.926 19.0284C190.523 18.6818 190.02 18.5085 189.417 18.5085C188.81 18.5085 188.298 18.6818 187.883 19.0284C187.474 19.375 187.165 19.8466 186.954 20.4432C186.75 21.0398 186.648 21.7188 186.648 22.4801C186.648 23.2415 186.75 23.9205 186.954 24.517C187.165 25.1136 187.474 25.5852 187.883 25.9318C188.298 26.2727 188.81 26.4432 189.417 26.4432ZM198.704 33.9091V15.9091H202.284V18.108H202.446C202.605 17.7557 202.835 17.3977 203.136 17.0341C203.443 16.6648 203.841 16.358 204.329 16.1136C204.824 15.8636 205.437 15.7386 206.17 15.7386C207.125 15.7386 208.006 15.9886 208.812 16.4886C209.619 16.983 210.264 17.7301 210.747 18.7301C211.23 19.7244 211.471 20.9716 211.471 22.4716C211.471 23.9318 211.236 25.1648 210.764 26.1705C210.298 27.1705 209.662 27.929 208.855 28.446C208.054 28.9574 207.156 29.2131 206.162 29.2131C205.457 29.2131 204.858 29.0966 204.364 28.8636C203.875 28.6307 203.474 28.3381 203.162 27.9858C202.849 27.6278 202.611 27.267 202.446 26.9034H202.335V33.9091H198.704ZM202.258 22.4545C202.258 23.233 202.366 23.9119 202.582 24.4915C202.798 25.071 203.111 25.5227 203.52 25.8466C203.929 26.1648 204.426 26.3239 205.011 26.3239C205.602 26.3239 206.102 26.1619 206.511 25.8381C206.92 25.5085 207.23 25.054 207.44 24.4744C207.656 23.8892 207.764 23.2159 207.764 22.4545C207.764 21.6989 207.659 21.0341 207.449 20.4602C207.239 19.8864 206.929 19.4375 206.52 19.1136C206.111 18.7898 205.608 18.6278 205.011 18.6278C204.42 18.6278 203.92 18.7841 203.511 19.0966C203.108 19.4091 202.798 19.8523 202.582 20.4261C202.366 21 202.258 21.6761 202.258 22.4545Z" fill="#13CF8F"/>
</svg>
