<svg width="41" height="41" viewBox="0 0 41 41" fill="none" xmlns="http://www.w3.org/2000/svg">
<path d="M30.0332 35.5484C30.0332 36.745 29.0631 37.7151 27.8665 37.7151C26.6699 37.7151 25.6999 36.745 25.6999 35.5484C25.6999 34.3518 26.6699 33.3818 27.8665 33.3818C29.0631 33.3818 30.0332 34.3518 30.0332 35.5484Z" stroke="white" stroke-width="1.5"/>
<path d="M16.6999 35.5484C16.6999 36.745 15.7298 37.7151 14.5332 37.7151C13.3366 37.7151 12.3665 36.745 12.3665 35.5484C12.3665 34.3518 13.3366 33.3818 14.5332 33.3818C15.7298 33.3818 16.6999 34.3518 16.6999 35.5484Z" stroke="white" stroke-width="1.5"/>
<path d="M9.59736 7.59277L9.59747 7.59278L9.59829 7.58004C9.64418 6.86886 9.41375 6.1664 8.92038 5.62605L8.91477 5.61991L8.90903 5.61389C8.42291 5.10462 7.74584 4.79842 7.01652 4.79842H4.11652C3.8474 4.79842 3.61652 4.56754 3.61652 4.29842C3.61652 4.0293 3.8474 3.79842 4.11652 3.79842H7.01652C7.99933 3.79842 8.96701 4.22157 9.66285 4.9545C10.083 5.43205 10.3609 6.01126 10.5018 6.6313L10.6345 7.21508H11.2332H31.7165C34.2339 7.21508 36.1364 9.24803 35.9519 11.7601L35.9518 11.7617C35.9303 12.0623 35.68 12.2984 35.3665 12.2984H9.84985C9.49186 12.2984 9.23557 12.0105 9.26382 11.6787L9.26403 11.6761L9.59736 7.59277Z" stroke="white" stroke-width="1.5"/>
<path d="M35.536 16.9001L35.5359 16.9001L35.5351 16.9122L34.9852 24.6936C34.9852 24.6939 34.9852 24.6942 34.9851 24.6945C34.8299 26.804 32.9548 28.5484 30.8499 28.5484H12.3165C9.9078 28.5484 8.01638 26.4924 8.214 24.0766C8.21401 24.0765 8.21401 24.0764 8.21402 24.0763L8.81343 16.8335C8.84557 16.5264 9.09747 16.2984 9.39986 16.2984H34.9665C35.3185 16.2984 35.5638 16.5801 35.536 16.9001Z" stroke="white" stroke-width="1.5"/>
</svg>
