<svg width="39" height="38" viewBox="0 0 39 38" fill="none" xmlns="http://www.w3.org/2000/svg">
<path d="M19.4178 35.8449C10.1609 35.8449 2.63674 28.3207 2.63674 19.0638C2.63674 9.80683 10.1609 2.28265 19.4178 2.28265C28.6748 2.28265 36.1989 9.80683 36.1989 19.0638C36.1989 28.3207 28.6748 35.8449 19.4178 35.8449ZM19.4178 4.6242C11.4566 4.6242 4.97829 11.1025 4.97829 19.0638C4.97829 27.025 11.4566 33.5033 19.4178 33.5033C27.3791 33.5033 33.8574 27.025 33.8574 19.0638C33.8574 11.1025 27.3791 4.6242 19.4178 4.6242Z" fill="#292D32"/>
<path d="M17.4509 25.745C17.1543 25.745 16.8577 25.6357 16.6236 25.4016C16.1709 24.9489 16.1709 24.1996 16.6236 23.7469L21.3067 19.0638L16.6236 14.3807C16.1709 13.928 16.1709 13.1787 16.6236 12.726C17.0763 12.2733 17.8256 12.2733 18.2783 12.726L23.7887 18.2364C24.2414 18.6891 24.2414 19.4384 23.7887 19.8911L18.2783 25.4016C18.0441 25.6357 17.7475 25.745 17.4509 25.745Z" fill="#292D32"/>
</svg>
