<svg width="35" height="34" viewBox="0 0 35 34" fill="none" xmlns="http://www.w3.org/2000/svg">
<path d="M14.4689 2.3181L14.4695 2.31764C16.3076 0.841341 19.2515 0.850728 21.1155 2.33586C21.1156 2.33594 21.1157 2.33602 21.1158 2.3361L32.0285 11.0663C32.671 11.591 33.2231 12.4082 33.5784 13.3381C33.9335 14.2674 34.0676 15.2452 33.9426 16.0643L31.8442 28.6212C31.8441 28.622 31.844 28.6227 31.8438 28.6235C31.421 31.0511 29.063 33.0496 26.6165 33.0496H8.94985C6.46814 33.0496 4.16199 31.0993 3.73931 28.6409C3.73922 28.6404 3.73913 28.6399 3.73904 28.6394L1.63959 16.0759L1.6393 16.0742C1.49942 15.2489 1.62543 14.269 1.97979 13.3397C2.33412 12.4105 2.89313 11.594 3.55094 11.0691L3.55225 11.0681L14.4689 2.3181ZM17.7832 29.1329C18.8807 29.1329 19.7832 28.2304 19.7832 27.1329V22.1329C19.7832 21.0353 18.8807 20.1329 17.7832 20.1329C16.6856 20.1329 15.7832 21.0353 15.7832 22.1329V27.1329C15.7832 28.2304 16.6856 29.1329 17.7832 29.1329Z" stroke="white" stroke-width="1.5"/>
</svg>
