<svg width="35" height="36" viewBox="0 0 35 36" fill="none" xmlns="http://www.w3.org/2000/svg">
<path d="M17.0777 9.01892L17.6783 9.82161L18.2788 9.01892C19.6018 7.25055 21.722 6.1007 24.0873 6.1007C28.101 6.1007 31.363 9.37007 31.363 13.4197C31.363 15.0558 31.102 16.5659 30.6488 17.9667L30.6472 17.9716C29.5606 21.4103 27.3334 24.1828 24.9282 26.2499C22.5197 28.3198 19.9757 29.6451 18.3316 30.2045L18.3316 30.2045L18.3236 30.2073C18.1835 30.2568 17.9494 30.2944 17.6783 30.2944C17.4071 30.2944 17.1731 30.2568 17.0329 30.2073L17.033 30.2072L17.0249 30.2045C15.3808 29.6451 12.8368 28.3198 10.4283 26.2499C8.02312 24.1828 5.79598 21.4103 4.70934 17.9716L4.70936 17.9716L4.70778 17.9667C4.25456 16.5659 3.99359 15.0558 3.99359 13.4197C3.99359 9.37007 7.25554 6.1007 11.2693 6.1007C13.6346 6.1007 15.7547 7.25055 17.0777 9.01892Z" stroke="black" stroke-width="1.5"/>
</svg>
