<svg width="42" height="42" viewBox="0 0 42 42" fill="none" xmlns="http://www.w3.org/2000/svg">
<path d="M28.0535 17.4256H13.6072C11.5633 17.4256 10.8531 16.0572 12.0483 14.3943L19.2714 4.2785C20.1202 3.06598 21.5405 3.06598 22.3893 4.2785L29.6124 14.3943C30.8076 16.0572 30.0974 17.4256 28.0535 17.4256Z" fill="#292D32"/>
<path d="M30.5132 31.1789H11.1476C8.41083 31.1789 7.47546 29.3602 9.08637 27.143L15.9977 17.4256H25.6632L32.5745 27.143C34.1854 29.3602 33.25 31.1789 30.5132 31.1789Z" fill="#292D32"/>
<path d="M22.1295 31.179V38.1076C22.1295 38.8178 21.5406 39.4067 20.8304 39.4067C20.1202 39.4067 19.5312 38.8178 19.5312 38.1076V31.179H22.1295Z" fill="#292D32"/>
</svg>
