<svg width="38" height="38" viewBox="0 0 38 38" fill="none" xmlns="http://www.w3.org/2000/svg">
<path d="M33.6702 12.2227V12.2247V25.3417C33.6702 28.0413 32.8684 30.106 31.4794 31.4951C30.0903 32.8841 28.0256 33.6859 25.326 33.6859H12.2247C9.52508 33.6859 7.46062 32.8841 6.07167 31.4934C4.68261 30.1026 3.88049 28.034 3.88049 25.326V12.2247C3.88049 9.5251 4.68229 7.46041 6.07134 6.07137C7.46038 4.68232 9.52507 3.88052 12.2247 3.88052H25.3417C28.0414 3.88052 30.1058 4.68239 31.4927 6.07103C32.8795 7.45953 33.6776 9.52351 33.6702 12.2227ZM28.2226 11.843L28.2519 11.8166L28.2783 11.7873C28.4739 11.57 28.6299 11.3262 28.7419 11.0575C28.8521 10.7929 28.9248 10.4915 28.9248 10.1742C28.9248 9.86076 28.8538 9.56271 28.7458 9.30045C28.6257 8.99238 28.4588 8.76165 28.2783 8.56117L28.2373 8.51557L28.1894 8.47724C28.1735 8.46451 28.1637 8.45603 28.1477 8.44204C28.1346 8.43065 28.1174 8.41561 28.0892 8.39165C28.0476 8.3563 27.9763 8.29681 27.8893 8.24259C27.7659 8.1615 27.6336 8.09244 27.4924 8.04053C27.3541 7.97614 27.2065 7.92839 27.041 7.90204C26.2871 7.74694 25.4943 8.00616 24.9679 8.53256L24.9539 8.54651L24.9407 8.56117C24.7603 8.76165 24.5933 8.99238 24.4732 9.30045C24.3652 9.56271 24.2943 9.86076 24.2943 10.1742C24.2943 10.4915 24.3669 10.7929 24.4772 11.0575C24.5891 11.3262 24.7452 11.57 24.9407 11.7873L24.9539 11.802L24.9679 11.8159C25.4111 12.2591 25.9954 12.4895 26.6095 12.4895C26.9268 12.4895 27.2282 12.4168 27.4928 12.3066C27.7615 12.1946 28.0053 12.0386 28.2226 11.843ZM11.9599 18.7832C11.9599 22.5471 15.0193 25.6065 18.7832 25.6065C22.5471 25.6065 25.6064 22.5471 25.6064 18.7832C25.6064 15.0193 22.5471 11.96 18.7832 11.96C15.0193 11.96 11.9599 15.0193 11.9599 18.7832Z" stroke="white" stroke-width="1.5"/>
</svg>
