<svg width="41" height="41" viewBox="0 0 41 41" fill="none" xmlns="http://www.w3.org/2000/svg">
<path d="M37.9499 7.02102C37.9499 9.13811 36.2336 10.8544 34.1165 10.8544C31.9994 10.8544 30.2832 9.13811 30.2832 7.02102C30.2832 4.90392 31.9994 3.18768 34.1165 3.18768C36.2336 3.18768 37.9499 4.90392 37.9499 7.02102Z" stroke="white" stroke-width="1.5"/>
<path d="M32.3578 14.6707L32.3602 14.6712C33.4755 14.9089 34.5568 14.909 35.5817 14.726L35.5817 14.7261L35.5924 14.724C36.1831 14.6097 36.6999 15.0461 36.6999 15.6044V23.621C36.6999 27.8068 33.319 31.1877 29.1332 31.1877H26.6165C25.8412 31.1877 25.1399 31.5534 24.6861 32.1505L24.6843 32.1529L22.1843 35.4696L22.1832 35.471C21.754 36.0432 21.2395 36.271 20.7832 36.271C20.3269 36.271 19.8123 36.0432 19.3832 35.471L19.3821 35.4696L16.8854 32.1573C16.6619 31.8526 16.3395 31.619 16.0269 31.4627C15.711 31.3048 15.329 31.1877 14.9499 31.1877H12.4499C8.26406 31.1877 4.86652 27.7901 4.86652 23.6044V12.021C4.86652 7.83523 8.26406 4.43768 12.4499 4.43768H25.5332C26.1154 4.43768 26.5365 4.95824 26.4158 5.53377L26.4158 5.53376L26.4139 5.54312C26.2093 6.58471 26.2305 7.67077 26.4663 8.77734L26.4668 8.77976C27.0958 11.6839 29.4536 14.0418 32.3578 14.6707ZM11.6999 18.6877C11.6999 20.0137 12.7641 21.1044 14.1165 21.1044C15.4689 21.1044 16.5332 20.0137 16.5332 18.6877C16.5332 17.3568 15.4474 16.271 14.1165 16.271C12.7641 16.271 11.6999 17.3617 11.6999 18.6877ZM18.3665 18.6877C18.3665 20.0137 19.4308 21.1044 20.7832 21.1044C22.1356 21.1044 23.1999 20.0137 23.1999 18.6877C23.1999 17.3568 22.1141 16.271 20.7832 16.271C19.4308 16.271 18.3665 17.3617 18.3665 18.6877ZM25.0332 18.6877C25.0332 20.0137 26.0974 21.1044 27.4499 21.1044C28.8023 21.1044 29.8665 20.0137 29.8665 18.6877C29.8665 17.3568 28.7807 16.271 27.4499 16.271C26.0974 16.271 25.0332 17.3617 25.0332 18.6877Z" stroke="white" stroke-width="1.5"/>
</svg>
