<svg width="24" height="23" viewBox="0 0 24 23" fill="none" xmlns="http://www.w3.org/2000/svg">
<mask id="path-1-inside-1_52_146" fill="white">
<path d="M11.8645 22.4033C5.68746 22.4033 0.666626 17.3825 0.666626 11.2054C0.666626 5.02834 5.68746 0.00750732 11.8645 0.00750732C18.0416 0.00750732 23.0625 5.02834 23.0625 11.2054C23.0625 17.3825 18.0416 22.4033 11.8645 22.4033ZM11.8645 1.57001C6.55204 1.57001 2.22913 5.89292 2.22913 11.2054C2.22913 16.5179 6.55204 20.8408 11.8645 20.8408C17.177 20.8408 21.5 16.5179 21.5 11.2054C21.5 5.89292 17.177 1.57001 11.8645 1.57001Z"/>
</mask>
<path d="M11.8645 19.1573C7.48022 19.1573 3.9127 15.5898 3.9127 11.2054H-2.57945C-2.57945 19.1753 3.8947 25.6494 11.8645 25.6494V19.1573ZM3.9127 11.2054C3.9127 6.8211 7.48022 3.25358 11.8645 3.25358V-3.23856C3.8947 -3.23856 -2.57945 3.23559 -2.57945 11.2054H3.9127ZM11.8645 3.25358C16.2489 3.25358 19.8164 6.8211 19.8164 11.2054H26.3085C26.3085 3.23559 19.8344 -3.23856 11.8645 -3.23856V3.25358ZM19.8164 11.2054C19.8164 15.5898 16.2489 19.1573 11.8645 19.1573V25.6494C19.8344 25.6494 26.3085 19.1753 26.3085 11.2054H19.8164ZM11.8645 -1.67606C4.75928 -1.67606 -1.01695 4.10017 -1.01695 11.2054H5.4752C5.4752 7.68568 8.3448 4.81608 11.8645 4.81608V-1.67606ZM-1.01695 11.2054C-1.01695 18.3107 4.75928 24.0869 11.8645 24.0869V17.5948C8.3448 17.5948 5.4752 14.7252 5.4752 11.2054H-1.01695ZM11.8645 24.0869C18.9698 24.0869 24.746 18.3107 24.746 11.2054H18.2539C18.2539 14.7252 15.3843 17.5948 11.8645 17.5948V24.0869ZM24.746 11.2054C24.746 4.10017 18.9698 -1.67606 11.8645 -1.67606V4.81608C15.3843 4.81608 18.2539 7.68568 18.2539 11.2054H24.746Z" fill="black" mask="url(#path-1-inside-1_52_146)"/>
<mask id="path-3-inside-2_52_146" fill="white">
<path d="M14.4687 11.57H8.21869C7.79161 11.57 7.43744 11.2158 7.43744 10.7888C7.43744 10.3617 7.79161 10.0075 8.21869 10.0075H14.4687C14.8958 10.0075 15.2499 10.3617 15.2499 10.7888C15.2499 11.2158 14.8958 11.57 14.4687 11.57Z"/>
</mask>
<path d="M14.4687 8.32394H8.21869V14.8161H14.4687V8.32394ZM8.21869 8.32394C9.58436 8.32394 10.6835 9.42309 10.6835 10.7888H4.19137C4.19137 13.0086 5.99885 14.8161 8.21869 14.8161V8.32394ZM10.6835 10.7888C10.6835 12.1544 9.58436 13.2536 8.21869 13.2536V6.76144C5.99885 6.76144 4.19137 8.56892 4.19137 10.7888H10.6835ZM8.21869 13.2536H14.4687V6.76144H8.21869V13.2536ZM14.4687 13.2536C13.103 13.2536 12.0039 12.1544 12.0039 10.7888H18.496C18.496 8.56892 16.6885 6.76144 14.4687 6.76144V13.2536ZM12.0039 10.7888C12.0039 9.42309 13.103 8.32394 14.4687 8.32394V14.8161C16.6885 14.8161 18.496 13.0086 18.496 10.7888H12.0039Z" fill="black" mask="url(#path-3-inside-2_52_146)"/>
<mask id="path-5-inside-3_52_146" fill="white">
<path d="M12.3854 14.4841C12.1875 14.4841 11.9896 14.4112 11.8333 14.2549C11.5312 13.9528 11.5312 13.4528 11.8333 13.1508L14.4062 10.5778L11.8333 8.00492C11.5312 7.70284 11.5312 7.20284 11.8333 6.90076C12.1354 6.59867 12.6354 6.59867 12.9375 6.90076L16.0625 10.0258C16.3646 10.3278 16.3646 10.8278 16.0625 11.1299L12.9375 14.2549C12.7812 14.4112 12.5833 14.4841 12.3854 14.4841Z"/>
</mask>
<path d="M11.8333 13.1508L14.1286 15.4461L14.1286 15.4461L11.8333 13.1508ZM14.4062 10.5778L16.7015 12.8732L18.9969 10.5778L16.7015 8.28252L14.4062 10.5778ZM11.8333 8.00492L14.1286 5.70961L14.1286 5.7096L11.8333 8.00492ZM12.9375 6.90076L10.6422 9.19607L10.6422 9.19608L12.9375 6.90076ZM16.0625 10.0258L18.3578 7.73044L18.3578 7.73044L16.0625 10.0258ZM16.0625 11.1299L18.3578 13.4252L18.3578 13.4252L16.0625 11.1299ZM12.9375 14.2549L10.6422 11.9596H10.6422L12.9375 14.2549ZM12.3854 11.238C13.0019 11.238 13.644 11.475 14.1286 11.9596L9.53799 16.5502C10.3351 17.3473 11.373 17.7302 12.3854 17.7302V11.238ZM14.1286 11.9596C15.0942 12.9252 15.0942 14.4805 14.1286 15.4461L9.53799 10.8554C7.96824 12.4252 7.96824 14.9805 9.53799 16.5502L14.1286 11.9596ZM14.1286 15.4461L16.7015 12.8732L12.1109 8.28252L9.53799 10.8554L14.1286 15.4461ZM16.7015 8.28252L14.1286 5.70961L9.53799 10.3002L12.1109 12.8732L16.7015 8.28252ZM14.1286 5.7096C15.0942 6.67519 15.0942 8.23049 14.1286 9.19607L9.53799 4.60544C7.96824 6.17519 7.96824 8.73049 9.53799 10.3002L14.1286 5.7096ZM14.1286 9.19607C13.163 10.1617 11.6077 10.1617 10.6422 9.19607L15.2328 4.60544C13.663 3.03568 11.1077 3.03568 9.53799 4.60544L14.1286 9.19607ZM10.6422 9.19608L13.7672 12.3211L18.3578 7.73044L15.2328 4.60544L10.6422 9.19608ZM13.7672 12.3211C12.8016 11.3555 12.8016 9.80019 13.7672 8.8346L18.3578 13.4252C19.9275 11.8555 19.9275 9.30019 18.3578 7.73044L13.7672 12.3211ZM13.7672 8.8346L10.6422 11.9596L15.2328 16.5502L18.3578 13.4252L13.7672 8.8346ZM10.6422 11.9596C11.1267 11.475 11.7688 11.238 12.3854 11.238V17.7302C13.3978 17.7302 14.4357 17.3473 15.2328 16.5502L10.6422 11.9596Z" fill="black" mask="url(#path-5-inside-3_52_146)"/>
</svg>
