<svg width="38" height="38" viewBox="0 0 38 38" fill="none" xmlns="http://www.w3.org/2000/svg">
<path d="M18.7324 35.8449C9.47544 35.8449 1.95126 28.3207 1.95126 19.0638C1.95126 9.80683 9.47544 2.28265 18.7324 2.28265C27.9893 2.28265 35.5135 9.80683 35.5135 19.0638C35.5135 28.3207 27.9893 35.8449 18.7324 35.8449ZM18.7324 4.6242C10.7711 4.6242 4.29281 11.1025 4.29281 19.0638C4.29281 27.025 10.7711 33.5033 18.7324 33.5033C26.6936 33.5033 33.1719 27.025 33.1719 19.0638C33.1719 11.1025 26.6936 4.6242 18.7324 4.6242Z" fill="#292D32"/>
<path d="M20.6993 25.745C20.4027 25.745 20.1061 25.6357 19.8719 25.4016L14.3615 19.8911C13.9088 19.4384 13.9088 18.6891 14.3615 18.2364L19.8719 12.726C20.3246 12.2733 21.0739 12.2733 21.5266 12.726C21.9793 13.1787 21.9793 13.928 21.5266 14.3807L16.8435 19.0638L21.5266 23.7469C21.9793 24.1996 21.9793 24.9489 21.5266 25.4016C21.3081 25.6357 21.0115 25.745 20.6993 25.745Z" fill="#292D32"/>
</svg>
