<svg width="24" height="24" viewBox="0 0 24 24" fill="none" xmlns="http://www.w3.org/2000/svg">
<mask id="path-1-inside-1_52_98" fill="white">
<path d="M18.2247 23.1145C17.6509 23.1145 16.9147 22.9304 15.9945 22.3891L12.7575 20.4729C12.4219 20.2781 11.7724 20.2781 11.4476 20.4729L8.19977 22.3891C6.28357 23.5259 5.15766 23.0712 4.64884 22.7031C4.15084 22.335 3.37137 21.3932 3.88019 19.2279L4.64884 15.9044C4.73545 15.5579 4.56223 14.9625 4.30241 14.7027L1.61756 12.0178C0.275131 10.6754 0.383391 9.52784 0.567433 8.96489C0.751475 8.40193 1.33608 7.40594 3.19815 7.09199L6.65165 6.51821C6.97643 6.46408 7.44195 6.11764 7.58269 5.82534L9.4989 2.00376C10.365 0.26077 11.5017 0.000946045 12.0971 0.000946045C12.6926 0.000946045 13.8293 0.26077 14.6954 2.00376L16.6008 5.81452C16.7523 6.10682 17.2178 6.45325 17.5426 6.50738L20.9961 7.08116C22.869 7.39511 23.4536 8.39111 23.6268 8.95406C23.8001 9.51701 23.9083 10.6646 22.5767 12.007L19.8919 14.7027C19.632 14.9625 19.4697 15.5471 19.5454 15.9044L20.3141 19.2279C20.8121 21.3932 20.0434 22.335 19.5454 22.7031C19.2748 22.898 18.8417 23.1145 18.2247 23.1145ZM12.0971 18.6975C12.6276 18.6975 13.1581 18.8274 13.5803 19.0764L16.8173 20.9926C17.7591 21.5555 18.3546 21.5555 18.5819 21.3932C18.8093 21.2308 18.9717 20.657 18.7335 19.596L17.9648 16.2724C17.7591 15.3739 18.0947 14.2155 18.7443 13.5551L21.4292 10.8703C21.9596 10.3398 22.1978 9.82014 22.0895 9.46288C21.9705 9.10563 21.4725 8.81332 20.7363 8.69424L17.2828 8.12046C16.4492 7.97972 15.5398 7.30851 15.1609 6.55068L13.2555 2.73993C12.9091 2.04706 12.476 1.63567 12.0971 1.63567C11.7182 1.63567 11.2852 2.04706 10.9496 2.73993L9.03338 6.55068C8.65447 7.30851 7.74508 7.97972 6.91148 8.12046L3.46881 8.69424C2.73264 8.81332 2.23464 9.10563 2.11555 9.46288C1.99647 9.82014 2.24547 10.3506 2.77594 10.8703L5.46079 13.5551C6.11035 14.2047 6.44596 15.3739 6.24026 16.2724L5.47162 19.596C5.22262 20.6678 5.39584 21.2308 5.62318 21.3932C5.85053 21.5555 6.43513 21.5447 7.38782 20.9926L10.6248 19.0764C11.0362 18.8274 11.5667 18.6975 12.0971 18.6975Z"/>
<path d="M12.0971 18.6975C12.6276 18.6975 13.1581 18.8274 13.5803 19.0764L16.8173 20.9926C17.7591 21.5555 18.3546 21.5555 18.5819 21.3932C18.8093 21.2308 18.9717 20.657 18.7335 19.596L17.9648 16.2724C17.7591 15.3739 18.0947 14.2155 18.7443 13.5551L21.4292 10.8703C21.9596 10.3398 22.1978 9.82014 22.0895 9.46288C21.9705 9.10563 21.4725 8.81332 20.7363 8.69424L17.2828 8.12046C16.4492 7.97972 15.5398 7.30851 15.1609 6.55068L13.2555 2.73993C12.9091 2.04706 12.476 1.63567 12.0971 1.63567C11.7182 1.63567 11.2852 2.04706 10.9496 2.73993L9.03338 6.55068C8.65447 7.30851 7.74508 7.97972 6.91148 8.12046L3.46881 8.69424C2.73264 8.81332 2.23464 9.10563 2.11555 9.46288C1.99647 9.82014 2.24547 10.3506 2.77594 10.8703L5.46079 13.5551C6.11035 14.2047 6.44596 15.3739 6.24026 16.2724L5.47162 19.596C5.22262 20.6678 5.39584 21.2308 5.62318 21.3932C5.85053 21.5555 6.43513 21.5447 7.38782 20.9926L10.6248 19.0764C11.0362 18.8274 11.5667 18.6975 12.0971 18.6975Z"/>
</mask>
<path d="M18.2247 23.1145C17.6509 23.1145 16.9147 22.9304 15.9945 22.3891L12.7575 20.4729C12.4219 20.2781 11.7724 20.2781 11.4476 20.4729L8.19977 22.3891C6.28357 23.5259 5.15766 23.0712 4.64884 22.7031C4.15084 22.335 3.37137 21.3932 3.88019 19.2279L4.64884 15.9044C4.73545 15.5579 4.56223 14.9625 4.30241 14.7027L1.61756 12.0178C0.275131 10.6754 0.383391 9.52784 0.567433 8.96489C0.751475 8.40193 1.33608 7.40594 3.19815 7.09199L6.65165 6.51821C6.97643 6.46408 7.44195 6.11764 7.58269 5.82534L9.4989 2.00376C10.365 0.26077 11.5017 0.000946045 12.0971 0.000946045C12.6926 0.000946045 13.8293 0.26077 14.6954 2.00376L16.6008 5.81452C16.7523 6.10682 17.2178 6.45325 17.5426 6.50738L20.9961 7.08116C22.869 7.39511 23.4536 8.39111 23.6268 8.95406C23.8001 9.51701 23.9083 10.6646 22.5767 12.007L19.8919 14.7027C19.632 14.9625 19.4697 15.5471 19.5454 15.9044L20.3141 19.2279C20.8121 21.3932 20.0434 22.335 19.5454 22.7031C19.2748 22.898 18.8417 23.1145 18.2247 23.1145ZM12.0971 18.6975C12.6276 18.6975 13.1581 18.8274 13.5803 19.0764L16.8173 20.9926C17.7591 21.5555 18.3546 21.5555 18.5819 21.3932C18.8093 21.2308 18.9717 20.657 18.7335 19.596L17.9648 16.2724C17.7591 15.3739 18.0947 14.2155 18.7443 13.5551L21.4292 10.8703C21.9596 10.3398 22.1978 9.82014 22.0895 9.46288C21.9705 9.10563 21.4725 8.81332 20.7363 8.69424L17.2828 8.12046C16.4492 7.97972 15.5398 7.30851 15.1609 6.55068L13.2555 2.73993C12.9091 2.04706 12.476 1.63567 12.0971 1.63567C11.7182 1.63567 11.2852 2.04706 10.9496 2.73993L9.03338 6.55068C8.65447 7.30851 7.74508 7.97972 6.91148 8.12046L3.46881 8.69424C2.73264 8.81332 2.23464 9.10563 2.11555 9.46288C1.99647 9.82014 2.24547 10.3506 2.77594 10.8703L5.46079 13.5551C6.11035 14.2047 6.44596 15.3739 6.24026 16.2724L5.47162 19.596C5.22262 20.6678 5.39584 21.2308 5.62318 21.3932C5.85053 21.5555 6.43513 21.5447 7.38782 20.9926L10.6248 19.0764C11.0362 18.8274 11.5667 18.6975 12.0971 18.6975Z" fill="#000000"/>
<path d="M12.0971 18.6975C12.6276 18.6975 13.1581 18.8274 13.5803 19.0764L16.8173 20.9926C17.7591 21.5555 18.3546 21.5555 18.5819 21.3932C18.8093 21.2308 18.9717 20.657 18.7335 19.596L17.9648 16.2724C17.7591 15.3739 18.0947 14.2155 18.7443 13.5551L21.4292 10.8703C21.9596 10.3398 22.1978 9.82014 22.0895 9.46288C21.9705 9.10563 21.4725 8.81332 20.7363 8.69424L17.2828 8.12046C16.4492 7.97972 15.5398 7.30851 15.1609 6.55068L13.2555 2.73993C12.9091 2.04706 12.476 1.63567 12.0971 1.63567C11.7182 1.63567 11.2852 2.04706 10.9496 2.73993L9.03338 6.55068C8.65447 7.30851 7.74508 7.97972 6.91148 8.12046L3.46881 8.69424C2.73264 8.81332 2.23464 9.10563 2.11555 9.46288C1.99647 9.82014 2.24547 10.3506 2.77594 10.8703L5.46079 13.5551C6.11035 14.2047 6.44596 15.3739 6.24026 16.2724L5.47162 19.596C5.22262 20.6678 5.39584 21.2308 5.62318 21.3932C5.85053 21.5555 6.43513 21.5447 7.38782 20.9926L10.6248 19.0764C11.0362 18.8274 11.5667 18.6975 12.0971 18.6975Z" fill="#000000"/>
<path d="M13.5803 19.0764L14.0215 18.3311L14.0203 18.3304L13.5803 19.0764ZM16.8173 20.9926L17.2616 20.2492L17.2585 20.2473L16.8173 20.9926ZM18.7335 19.596L19.5786 19.4063L19.5773 19.4009L18.7335 19.596ZM17.9648 16.2724L17.1206 16.4657L17.121 16.4676L17.9648 16.2724ZM18.7443 13.5551L18.1319 12.9427L18.1269 12.9478L18.7443 13.5551ZM21.4292 10.8703L20.8168 10.2579L21.4292 10.8703ZM22.0895 9.46288L22.9184 9.21171L22.915 9.20031L22.9112 9.189L22.0895 9.46288ZM20.7363 8.69424L20.5943 9.54861L20.598 9.5492L20.7363 8.69424ZM17.2828 8.12046L17.1386 8.97445L17.1409 8.97483L17.2828 8.12046ZM15.1609 6.55068L14.3863 6.93801L15.1609 6.55068ZM13.2555 2.73993L14.0302 2.3526L13.2555 2.73993ZM10.9496 2.73993L11.7234 3.12905L11.729 3.11748L10.9496 2.73993ZM9.03338 6.55068L8.25961 6.1616L8.25873 6.16336L9.03338 6.55068ZM6.91148 8.12046L7.05386 8.97476L7.05566 8.97445L6.91148 8.12046ZM3.46881 8.69424L3.60711 9.54921L3.61119 9.54853L3.46881 8.69424ZM2.77594 10.8703L3.38838 10.2578L3.38201 10.2516L2.77594 10.8703ZM5.46079 13.5551L4.84838 14.1675L5.46079 13.5551ZM6.24026 16.2724L7.08408 16.4676L7.08451 16.4657L6.24026 16.2724ZM5.47162 19.596L6.31523 19.792L6.31543 19.7912L5.47162 19.596ZM7.38782 20.9926L7.82211 21.742L7.82901 21.7379L7.38782 20.9926ZM10.6248 19.0764L11.066 19.8217L11.0733 19.8173L10.6248 19.0764ZM12.0971 19.5636C12.4963 19.5636 12.8702 19.6631 13.1403 19.8224L14.0203 18.3304C13.4459 17.9917 12.7589 17.8314 12.0971 17.8314V19.5636ZM13.1391 19.8217L16.3761 21.7379L17.2585 20.2473L14.0215 18.3311L13.1391 19.8217ZM16.3729 21.736C16.9072 22.0553 17.3932 22.2459 17.8226 22.3187C18.2222 22.3866 18.7025 22.3714 19.0853 22.0979L18.0785 20.6884C18.234 20.5773 18.3029 20.6433 18.1125 20.611C17.9519 20.5837 17.6692 20.4928 17.2616 20.2492L16.3729 21.736ZM19.0853 22.0979C19.4882 21.8101 19.6395 21.3332 19.6909 20.9452C19.7473 20.5188 19.7125 20.0032 19.5785 19.4063L17.8884 19.7857C17.9926 20.2498 17.9957 20.5515 17.9737 20.7179C17.9628 20.8002 17.9481 20.8312 17.9501 20.8269C17.9505 20.826 17.9817 20.7576 18.0785 20.6884L19.0853 22.0979ZM19.5773 19.4009L18.8086 16.0773L17.121 16.4676L17.8897 19.7912L19.5773 19.4009ZM18.8091 16.0792C18.6705 15.4739 18.9156 14.616 19.3618 14.1624L18.1269 12.9478C17.2739 13.815 16.8478 15.2738 17.1206 16.4657L18.8091 16.0792ZM19.3567 14.1675L22.0416 11.4827L20.8168 10.2579L18.1319 12.9427L19.3567 14.1675ZM22.0416 11.4827C22.3556 11.1686 22.6171 10.8252 22.7838 10.4676C22.9454 10.121 23.0576 9.6711 22.9184 9.21171L21.2607 9.71405C21.2297 9.61193 21.277 9.60047 21.2139 9.73561C21.156 9.85981 21.0332 10.0414 20.8168 10.2579L22.0416 11.4827ZM22.9112 9.189C22.7596 8.73433 22.4093 8.42945 22.075 8.23782C21.73 8.04013 21.3155 7.91059 20.8746 7.83927L20.598 9.5492C20.8933 9.59697 21.0958 9.67312 21.2137 9.74067C21.3421 9.81428 21.3004 9.83418 21.2679 9.73676L22.9112 9.189ZM20.8782 7.83987L17.4247 7.26609L17.1409 8.97483L20.5943 9.54861L20.8782 7.83987ZM17.427 7.26646C17.1711 7.22326 16.8597 7.08755 16.5662 6.87055C16.2727 6.65354 16.0517 6.39572 15.9355 6.16336L14.3863 6.93801C14.649 7.46347 15.0722 7.92017 15.5365 8.26341C16.0008 8.60665 16.5609 8.87691 17.1386 8.97445L17.427 7.26646ZM15.9355 6.16336L14.0302 2.3526L12.4809 3.12725L14.3863 6.93801L15.9355 6.16336ZM14.0302 2.3526C13.8267 1.94564 13.5776 1.57869 13.2858 1.30081C13.0062 1.03452 12.5995 0.769593 12.0971 0.769593V2.50176C11.9737 2.50176 11.973 2.44253 12.0912 2.55514C12.1973 2.65617 12.3379 2.84135 12.4809 3.12725L14.0302 2.3526ZM12.0971 0.769593C11.5946 0.769593 11.1875 1.03454 10.9077 1.30285C10.6159 1.58264 10.3689 1.95208 10.1701 2.36238L11.729 3.11748C11.8659 2.83491 12.0032 2.65222 12.1066 2.5531C12.2219 2.44251 12.2207 2.50176 12.0971 2.50176V0.769593ZM10.1758 2.35085L8.25961 6.1616L9.80714 6.93977L11.7233 3.12901L10.1758 2.35085ZM8.25873 6.16336C8.14255 6.39572 7.92161 6.65354 7.62808 6.87055C7.33454 7.08755 7.02316 7.22326 6.7673 7.26646L7.05566 8.97445C7.63339 8.87691 8.19351 8.60665 8.6578 8.26341C9.12208 7.92017 9.54529 7.46347 9.80802 6.93801L8.25873 6.16336ZM6.76909 7.26616L3.32642 7.83994L3.61119 9.54853L7.05386 8.97475L6.76909 7.26616ZM3.3305 7.83927C2.8896 7.91059 2.47507 8.04013 2.13013 8.23782C1.79576 8.42945 1.44547 8.73433 1.29392 9.189L2.93719 9.73676C2.90472 9.83418 2.86298 9.81428 2.99142 9.74067C3.10929 9.67312 3.31184 9.59697 3.60711 9.5492L3.3305 7.83927ZM1.29392 9.189C1.13633 9.66175 1.25544 10.1269 1.41812 10.4736C1.58737 10.8343 1.85343 11.179 2.16987 11.489L3.38201 10.2516C3.16797 10.0419 3.0443 9.86154 2.9862 9.73775C2.92154 9.59995 2.97569 9.62127 2.93719 9.73676L1.29392 9.189ZM2.16353 11.4827L4.84838 14.1675L6.0732 12.9427L3.38835 10.2579L2.16353 11.4827ZM4.84838 14.1675C5.04943 14.3686 5.23133 14.6849 5.33875 15.0593C5.44614 15.4335 5.46003 15.7996 5.39602 16.0792L7.08451 16.4657C7.22619 15.8468 7.17513 15.1789 7.00374 14.5816C6.83239 13.9843 6.52172 13.3912 6.0732 12.9427L4.84838 14.1675ZM5.39646 16.0773L4.62781 19.4009L6.31543 19.7912L7.08407 16.4676L5.39646 16.0773ZM4.628 19.4C4.48759 20.0044 4.45163 20.5239 4.51078 20.9537C4.56554 21.3516 4.72491 21.8159 5.11978 22.0979L6.12658 20.6884C6.29411 20.8081 6.2532 20.9096 6.22677 20.7175C6.20472 20.5573 6.20664 20.2594 6.31523 19.792L4.628 19.4ZM5.11978 22.0979C5.50757 22.3749 5.98988 22.3827 6.38289 22.3139C6.80624 22.2398 7.28776 22.0516 7.8221 21.7419L6.95355 20.2433C6.53519 20.4857 6.24807 20.579 6.08411 20.6077C5.8898 20.6417 5.96614 20.5738 6.12658 20.6884L5.11978 22.0979ZM7.82901 21.7379L11.066 19.8217L10.1836 18.3311L6.94663 20.2473L7.82901 21.7379ZM11.0733 19.8173C11.3264 19.6641 11.6956 19.5636 12.0971 19.5636V17.8314C11.4377 17.8314 10.7459 17.9907 10.1763 18.3355L11.0733 19.8173ZM15.9945 22.3891L15.1121 23.8797L15.1163 23.8822L15.9945 22.3891ZM12.7575 20.4729L13.6399 18.9824L13.6336 18.9787L13.6273 18.975L12.7575 20.4729ZM11.4476 20.4729L12.3278 21.9648L12.3388 21.9583L11.4476 20.4729ZM8.19977 22.3891L7.31957 20.8973L7.31602 20.8994L8.19977 22.3891ZM4.64884 22.7031L3.61926 24.0961L3.62639 24.1013L3.63359 24.1065L4.64884 22.7031ZM3.88019 19.2279L5.56643 19.6242L5.56781 19.6182L3.88019 19.2279ZM4.64884 15.9044L2.9684 15.4843L2.96468 15.4991L2.96122 15.5141L4.64884 15.9044ZM4.30241 14.7027L5.52723 13.4779L4.30241 14.7027ZM1.61756 12.0178L0.392733 13.2426H0.392733L1.61756 12.0178ZM3.19815 7.09199L2.91426 5.38324L2.91017 5.38393L3.19815 7.09199ZM6.65165 6.51821L6.93555 8.22695L6.93642 8.2268L6.65165 6.51821ZM7.58269 5.82534L6.03428 5.04894L6.02804 5.06137L6.02201 5.0739L7.58269 5.82534ZM9.4989 2.00376L11.0473 2.78016L11.0501 2.77455L9.4989 2.00376ZM14.6954 2.00376L13.1442 2.77455L13.1461 2.77841L14.6954 2.00376ZM16.6008 5.81452L15.0515 6.58916L15.0572 6.60055L15.063 6.61186L16.6008 5.81452ZM17.5426 6.50738L17.2579 8.21597L17.2587 8.21612L17.5426 6.50738ZM20.9961 7.08116L21.2825 5.37283L21.28 5.37242L20.9961 7.08116ZM22.5767 12.007L23.804 13.2294L23.8065 13.2269L22.5767 12.007ZM19.8919 14.7027L21.1167 15.9275L21.1192 15.925L19.8919 14.7027ZM19.5454 15.9044L17.851 16.2638L17.8543 16.2793L17.8578 16.2947L19.5454 15.9044ZM20.3141 19.2279L22.0022 18.8397L22.0017 18.8377L20.3141 19.2279ZM19.5454 22.7031L20.5575 24.1088L20.5663 24.1025L20.575 24.0961L19.5454 22.7031ZM18.2247 21.3823C18.031 21.3823 17.5958 21.3214 16.8727 20.8961L15.1163 23.8822C16.2337 24.5395 17.2708 24.8467 18.2247 24.8467V21.3823ZM16.8769 20.8986L13.6399 18.9824L11.8751 21.9635L15.1121 23.8797L16.8769 20.8986ZM13.6273 18.975C13.0998 18.6687 12.5154 18.5946 12.0985 18.5946C11.6865 18.5946 11.0909 18.6669 10.5564 18.9876L12.3388 21.9583C12.2138 22.0333 12.1246 22.0528 12.1108 22.0558C12.0887 22.0606 12.0862 22.059 12.0985 22.059C12.1106 22.059 12.1104 22.0606 12.0924 22.0567C12.0818 22.0544 12.0024 22.0375 11.8877 21.9709L13.6273 18.975ZM10.5674 18.9811L7.31958 20.8973L9.07997 23.881L12.3278 21.9648L10.5674 18.9811ZM7.31602 20.8994C6.57404 21.3395 6.13505 21.3847 5.94864 21.379C5.77145 21.3737 5.69119 21.3193 5.66409 21.2997L3.63359 24.1065C4.11531 24.455 4.85242 24.812 5.84444 24.8418C6.82724 24.8714 7.9093 24.5755 9.08352 23.8789L7.31602 20.8994ZM5.67842 21.3101C5.65822 21.2952 5.58106 21.2361 5.52163 21.0665C5.45981 20.8902 5.37029 20.4588 5.56642 19.6242L2.19397 18.8317C1.88127 20.1623 1.92708 21.2845 2.25229 22.2124C2.57988 23.147 3.14146 23.7429 3.61926 24.0961L5.67842 21.3101ZM5.56781 19.6182L6.33646 16.2947L2.96122 15.5141L2.19258 18.8377L5.56781 19.6182ZM6.32928 16.3245C6.47601 15.7376 6.37806 15.1652 6.26953 14.7899C6.15905 14.4078 5.93905 13.8897 5.52723 13.4779L3.07758 15.9275C2.98625 15.8362 2.94985 15.7663 2.94528 15.7576C2.93713 15.7422 2.93845 15.7415 2.94154 15.7522C2.94472 15.7632 2.94223 15.76 2.94044 15.7361C2.93933 15.7212 2.93246 15.628 2.9684 15.4843L6.32928 16.3245ZM5.52723 13.4779L2.84238 10.793L0.392733 13.2426L3.07758 15.9275L5.52723 13.4779ZM2.84238 10.793C2.36894 10.3196 2.24622 9.98044 2.21026 9.82007C2.17306 9.65415 2.1995 9.54701 2.21385 9.50314L-1.07898 8.42664C-1.24868 8.94571 -1.36839 9.69383 -1.17012 10.578C-0.970619 11.4678 -0.476258 12.3737 0.392733 13.2426L2.84238 10.793ZM2.21385 9.50314C2.23039 9.45251 2.27556 9.34458 2.40675 9.22753C2.53328 9.11463 2.832 8.91033 3.48614 8.80004L2.91017 5.38393C1.70223 5.58759 0.777615 6.03827 0.100316 6.64259C-0.572333 7.24277 -0.911487 7.91431 -1.07898 8.42664L2.21385 9.50314ZM3.48205 8.80072L6.93555 8.22695L6.36776 4.80947L2.91426 5.38325L3.48205 8.80072ZM6.93642 8.2268C7.47826 8.13649 7.9335 7.86412 8.22031 7.65069C8.50478 7.43898 8.90193 7.07823 9.14337 6.57678L6.02201 5.0739C6.08331 4.94659 6.14298 4.88281 6.14905 4.87622C6.16185 4.86231 6.16285 4.86347 6.15207 4.87149C6.14138 4.87945 6.13964 4.87887 6.15471 4.87151C6.16144 4.86823 6.23466 4.83165 6.36689 4.80961L6.93642 8.2268ZM9.1311 6.60174L11.0473 2.78016L7.95048 1.22736L6.03428 5.04894L9.1311 6.60174ZM11.0501 2.77455C11.3602 2.15058 11.6524 1.91786 11.797 1.83025C11.9453 1.7404 12.0547 1.73311 12.0971 1.73311V-1.73122C11.5441 -1.73122 10.7874 -1.6086 10.002 -1.13278C9.21289 -0.654732 8.50371 0.11395 7.94768 1.23297L11.0501 2.77455ZM12.0971 1.73311C12.1395 1.73311 12.249 1.7404 12.3973 1.83025C12.5419 1.91786 12.8341 2.15058 13.1442 2.77455L16.2466 1.23297C15.6906 0.11395 14.9814 -0.654732 14.1923 -1.13278C13.4068 -1.6086 12.6502 -1.73122 12.0971 -1.73122V1.73311ZM13.1461 2.77841L15.0515 6.58916L18.1501 5.03987L16.2447 1.22911L13.1461 2.77841ZM15.063 6.61186C15.308 7.08422 15.6909 7.43184 15.9778 7.64367C16.2618 7.85346 16.7163 8.12571 17.2579 8.21597L17.8274 4.79879C17.8989 4.8107 17.9507 4.82648 17.9803 4.83668C18.0109 4.84725 18.0302 4.8562 18.0383 4.86013C18.0523 4.86699 18.049 4.86663 18.0357 4.85685C18.0226 4.84719 18.0196 4.84281 18.0277 4.85149C18.0298 4.85369 18.0812 4.90668 18.1385 5.01717L15.063 6.61186ZM17.2587 8.21612L20.7122 8.7899L21.28 5.37242L17.8265 4.79864L17.2587 8.21612ZM20.7098 8.78949C21.3716 8.90042 21.6714 9.10587 21.7956 9.21671C21.9242 9.33144 21.9615 9.43184 21.9713 9.46347L25.2824 8.44466C25.1189 7.91333 24.7773 7.23425 24.1021 6.63176C23.4225 6.02538 22.4936 5.57585 21.2825 5.37283L20.7098 8.78949ZM21.9713 9.46347C21.9891 9.52142 22.0143 9.63783 21.9759 9.80924C21.9388 9.97486 21.8151 10.3152 21.3469 10.7871L23.8065 13.2269C24.67 12.3564 25.158 11.4517 25.3563 10.5672C25.5533 9.6885 25.4378 8.94965 25.2824 8.44466L21.9713 9.46347ZM21.3494 10.7846L18.6646 13.4803L21.1192 15.925L23.804 13.2294L21.3494 10.7846ZM18.667 13.4779C18.2518 13.8931 18.0351 14.4127 17.9269 14.7925C17.8177 15.1759 17.7344 15.7144 17.851 16.2638L21.2399 15.5449C21.2644 15.6603 21.2585 15.7308 21.2578 15.739C21.2566 15.7539 21.2556 15.7525 21.2587 15.7415C21.2619 15.7303 21.2627 15.7328 21.2531 15.7511C21.2468 15.7633 21.209 15.8352 21.1167 15.9275L18.667 13.4779ZM17.8578 16.2947L18.6265 19.6182L22.0017 18.8377L21.2331 15.5141L17.8578 16.2947ZM18.626 19.6162C18.8188 20.4545 18.73 20.8901 18.6673 21.0701C18.6074 21.2422 18.5309 21.299 18.5159 21.3101L20.575 24.0961C21.0579 23.7391 21.6148 23.1409 21.9392 22.2088C22.2608 21.2846 22.3074 20.1666 22.0022 18.8397L18.626 19.6162ZM18.5333 21.2974C18.5071 21.3163 18.4737 21.3358 18.4311 21.3511C18.3911 21.3654 18.3257 21.3823 18.2247 21.3823V24.8467C19.2783 24.8467 20.0578 24.4686 20.5575 24.1088L18.5333 21.2974Z" fill="#000000" mask="url(#path-1-inside-1_52_98)"/>
</svg>
