<svg width="36" height="34" viewBox="0 0 36 34" fill="none" xmlns="http://www.w3.org/2000/svg">
<path d="M31.7032 16.5786C31.7032 24.9098 24.9494 31.6636 16.6182 31.6636C8.28699 31.6636 1.5332 24.9098 1.5332 16.5786C1.5332 8.24738 8.28699 1.49359 16.6182 1.49359C24.9494 1.49359 31.7032 8.24738 31.7032 16.5786Z" stroke="white" stroke-width="1.5"/>
<path d="M34.3783 32.9936C34.2068 32.9936 34.0409 32.9253 33.9288 32.8133L30.2093 29.0933C29.9689 28.8529 29.954 28.4441 30.214 28.1692C30.4553 27.933 30.861 27.9203 31.134 28.1795L34.8479 31.8939C35.0854 32.1314 35.1028 32.5333 34.8524 32.808C34.7109 32.9325 34.539 32.9936 34.3783 32.9936Z" stroke="white" stroke-width="1.5"/>
</svg>
