<svg width="88" height="31" viewBox="0 0 88 31" fill="none" xmlns="http://www.w3.org/2000/svg">
<path d="M10.3764 30.7794C7.80203 30.6772 5.69585 29.9728 4.04899 28.6644C3.7347 28.4145 2.98576 27.6651 2.7345 27.3491C2.06668 26.5093 1.61265 25.6921 1.30981 24.7853C0.377941 21.9941 0.85754 18.3315 2.6816 14.3117C4.24339 10.8703 6.65329 7.45716 10.8577 2.72994C11.4771 2.03434 13.3214 0 13.3333 0C13.3377 0 13.2372 0.174122 13.1107 0.386151C12.0175 2.21727 11.0821 4.37414 10.5725 6.2414C9.75393 9.23758 9.85267 11.8088 10.8617 13.8026C11.5577 15.1762 12.751 16.3659 14.0928 17.0236C16.4419 18.1745 19.8811 18.2697 24.0811 17.3022C24.3703 17.2352 38.6992 13.4314 55.9233 8.84923C73.1475 4.26659 87.2423 0.520159 87.2445 0.523245C87.2494 0.527212 47.2279 17.6526 26.4522 26.5371C23.162 27.9437 22.2821 28.299 20.7353 28.8421C16.7813 30.2306 13.2394 30.8932 10.3764 30.7794Z" fill="black"/>
</svg>
